<svg xmlns="http://www.w3.org/2000/svg" xmlns:xlink="http://www.w3.org/1999/xlink" width="376.221" height="362.055" viewBox="0 0 376.221 362.055">
  <defs>
    <clipPath id="clip-path">
      <rect id="Rectangle_34" data-name="Rectangle 34" width="127.445" height="64.384" fill="#fff"/>
    </clipPath>
  </defs>
  <g id="Group_14" data-name="Group 14" transform="translate(-772 -1048.329)">
    <g id="Group_12" data-name="Group 12" transform="translate(772 1346)" clip-path="url(#clip-path)">
      <path id="Path_55" data-name="Path 55" d="M-35.2,382.247l100.738-1.3L26.5,370.2l4.4-9.307,24.967-3.426-6.4-1.483-17.19-.767Z" transform="translate(57 -325)" fill="#172b4d"/>
      <path id="Path_56" data-name="Path 56" d="M20.51,334.716l-3.07.051-25.53-9.512,28.855,16.364,4.707-3.886Z" transform="translate(57 -325)" fill="#36b37e"/>
      <path id="Path_57" data-name="Path 57" d="M20.511,334.715l49.679-9.1L45.375,349.7Z" transform="translate(57 -325)" fill="#172b4d"/>
      <path id="Path_58" data-name="Path 58" d="M-8.089,325.255l49.576,28.177-11.153,2.046L3.013,357.472Z" transform="translate(57 -325)" fill="#fff" stroke="#36b37e" stroke-linejoin="round" stroke-miterlimit="10" stroke-width="0.634"/>
      <path id="Path_59" data-name="Path 59" d="M41.487,353.432l28.7-27.82L49.468,355.989Z" transform="translate(57 -325)" fill="#fff" stroke="#36b37e" stroke-linejoin="round" stroke-miterlimit="10" stroke-width="0.634"/>
      <path id="Path_60" data-name="Path 60" d="M20.767,341.619l12.842-10.586,1.33,1.074L30.9,347.4Z" transform="translate(57 -325)" fill="#fff" stroke="#36b37e" stroke-linejoin="round" stroke-miterlimit="10" stroke-width="0.634"/>
      <path id="Path_61" data-name="Path 61" d="M34.938,332.107l11.614,16.467-5.065,4.858L30.9,347.4Z" transform="translate(57 -325)" fill="#fff" stroke="#36b37e" stroke-linejoin="round" stroke-miterlimit="10" stroke-width="0.634"/>
      <path id="Path_62" data-name="Path 62" d="M49.468,355.989l-19.135-.512,11.153-2.045Z" transform="translate(57 -325)" fill="#fff" stroke="#36b37e" stroke-linejoin="round" stroke-miterlimit="10" stroke-width="0.634"/>
      <path id="Path_63" data-name="Path 63" d="M-16.633,348.113l64.26-22.5L19.641,362.688Z" transform="translate(57 -325)" fill="#c5e9da" stroke="#36b37e" stroke-miterlimit="10" stroke-width="0.634"/>
      <path id="Path_64" data-name="Path 64" d="M-56.744,341.567l72.087,26.848L.864,373.529l-36.018,8.336Z" transform="translate(57 -325)" fill="#fff" stroke="#36b37e" stroke-linejoin="round" stroke-miterlimit="10" stroke-width="0.634"/>
      <path id="Path_65" data-name="Path 65" d="M15.343,368.416l32.283-42.8L26.5,370.2Z" transform="translate(57 -325)" fill="#fff" stroke="#36b37e" stroke-linejoin="round" stroke-miterlimit="10" stroke-width="0.634"/>
      <path id="Path_66" data-name="Path 66" d="M-14.791,357.217.1,340.494l2,1.074-2.149,21.12Z" transform="translate(57 -325)" fill="#36b37e"/>
      <path id="Path_67" data-name="Path 67" d="M2.092,341.567l18.879,19.382-5.628,7.466-15.4-5.727Z" transform="translate(57 -325)" fill="#fff" stroke="#36b37e" stroke-linejoin="round" stroke-miterlimit="10" stroke-width="0.634"/>
      <path id="Path_68" data-name="Path 68" d="M26.5,370.2.864,373.529l14.479-5.114Z" transform="translate(57 -325)" fill="#fff" stroke="#36b37e" stroke-linejoin="round" stroke-miterlimit="10" stroke-width="0.634"/>
      <g id="Group_11" data-name="Group 11" transform="translate(20.669 24.238)">
        <path id="Path_69" data-name="Path 69" d="M-13.461,369.489l-7.828.256-3.632-6.29-7.521.307,3.53,6.239-7.419.2L-32.9,376.5l7.572-.154,7.726-.2,3.786,6.6,8.084-.1,3.991,6.751H6.646L2.553,382.53l-4.042-6.7-8.186.153Z" transform="translate(36.331 -349.238)" fill="#c5e9da"/>
        <path id="Path_70" data-name="Path 70" d="M2.757,368.927l-8.237.307,3.991,6.6,8.339-.2,8.6-.205-4.247-6.75-4.144-6.6-8.288.358Z" transform="translate(36.331 -349.238)" fill="#36b37e"/>
        <path id="Path_71" data-name="Path 71" d="M-.977,349.238l-8.032.512,3.837,6.239,8.186-.409Z" transform="translate(36.331 -349.238)" fill="#36b37e"/>
        <path id="Path_72" data-name="Path 72" d="M15.6,361.665l-4.247-6.546-8.339.46,4.042,6.495Z" transform="translate(36.331 -349.238)" fill="#36b37e"/>
      </g>
    </g>
    <g id="Group_13" data-name="Group 13" transform="translate(1027.935 1048.919)">
      <path id="Path_30" data-name="Path 30" d="M378.8,93.077l44.005,14.965H359.67l-8.1-.883-3.924-2.453,13.393-11.629Z" transform="translate(-306.343 -27.919)" fill="#172b4d"/>
      <path id="Path_31" data-name="Path 31" d="M373.014,65.6V63.246s-5.151-10.206-5.887-10.3S306.54,27.919,306.54,27.919l22.812,44.4,9.027,9.617Z" transform="translate(-306.343 -27.919)" fill="#fff" stroke="#36b37e" stroke-miterlimit="10" stroke-width="0.599"/>
      <g id="Group_9" data-name="Group 9" transform="translate(0 1.816)">
        <path id="Path_32" data-name="Path 32" d="M348.043,54.071l-7.506.245L337.1,48.232l-7.212.344,3.385,5.937-7.162.245,3.336,6.035,7.211-.147,7.457-.2,3.631,6.28,7.7-.049,3.826,6.477h8.1L363.4,66.583l-3.875-6.477-7.8.2Z" transform="translate(-306.343 -29.734)" fill="#c5e9da"/>
        <path id="Path_33" data-name="Path 33" d="M344.462,47.937l-3.533-5.986-7.26.393,3.434,5.888Z" transform="translate(-306.343 -29.734)" fill="#36b37e"/>
        <path id="Path_34" data-name="Path 34" d="M355.745,53.777l-3.728-6.182-7.555.344,3.581,6.133Z" transform="translate(-306.343 -29.734)" fill="#36b37e"/>
        <path id="Path_35" data-name="Path 35" d="M359.768,47.25l-3.778-6.133-7.6.393,3.631,6.084Z" transform="translate(-306.343 -29.734)" fill="#36b37e"/>
        <path id="Path_36" data-name="Path 36" d="M363.643,53.531l-7.9.245,3.778,6.329,8.045-.147,8.242-.2-4.072-6.477-3.974-6.379-8,.344Z" transform="translate(-306.343 -29.734)" fill="#36b37e"/>
        <path id="Path_37" data-name="Path 37" d="M322.876,48.87l7.015-.294L326.6,42.688l7.065-.343-3.336-5.839-6.966.441-6.82.442,3.14,5.692-6.77.343-6.574.344,2.993,5.692,6.672-.294L319.148,55l6.966-.245Z" transform="translate(-306.343 -29.734)" fill="#172b4d"/>
        <path id="Path_38" data-name="Path 38" d="M312.377,55.2l3.091,5.888,6.917-.147L319.148,55Z" transform="translate(-306.343 -29.734)" fill="#36b37e"/>
        <path id="Path_39" data-name="Path 39" d="M306.932,32.286l2.944,5.544,6.671-.442-3.09-5.593Z" transform="translate(-306.343 -29.734)" fill="#36b37e"/>
        <path id="Path_40" data-name="Path 40" d="M340.929,41.952l7.457-.442L344.8,35.573l-3.483-5.839-7.212.54-7.064.54,3.287,5.692,7.162-.442Z" transform="translate(-306.343 -29.734)" fill="#36b37e"/>
        <path id="Path_41" data-name="Path 41" d="M360.013,34.592l-7.7.491,3.679,6.035,7.85-.393Z" transform="translate(-306.343 -29.734)" fill="#36b37e"/>
        <path id="Path_42" data-name="Path 42" d="M375.908,46.563l-4.023-6.28-8.045.442,3.924,6.182Z" transform="translate(-306.343 -29.734)" fill="#36b37e"/>
        <path id="Path_43" data-name="Path 43" d="M322.385,60.939l3.287,6.084,7.163-.1-3.385-6.133Z" transform="translate(-306.343 -29.734)" fill="#36b37e"/>
      </g>
      <path id="Path_44" data-name="Path 44" d="M359.67,64.03,332.2,69.918l-.686,1.815,6.132,8.39Z" transform="translate(-306.343 -27.919)" fill="#172b4d"/>
      <path id="Path_45" data-name="Path 45" d="M383.12,71.538l-5.544-4.71L368.991,60.3l-21.733,8.734-.981,5.25,5.3,7.507Z" transform="translate(-306.343 -27.919)" fill="#fff" stroke="#36b37e" stroke-miterlimit="10" stroke-width="0.599"/>
      <path id="Path_46" data-name="Path 46" d="M371.984,75.119l16.042-5.2L378.8,93.077l-13.246.834Z" transform="translate(-306.343 -27.919)" fill="#fff" stroke="#36b37e" stroke-miterlimit="10" stroke-width="0.599"/>
      <path id="Path_47" data-name="Path 47" d="M354.764,80.663l-3.189,1.129L350.1,102.743l1.471,4.416,13.982-13.248,6.427-18.792Z" transform="translate(-306.343 -27.919)" fill="#fff" stroke="#36b37e" stroke-miterlimit="10" stroke-width="0.599"/>
      <path id="Path_48" data-name="Path 48" d="M397.69,66.827l27.718,14.965-70.644-1.129Z" transform="translate(-306.343 -27.919)" fill="#c5e9da" stroke="#36b37e" stroke-miterlimit="10" stroke-width="0.599"/>
      <path id="Path_49" data-name="Path 49" d="M351.575,81.792V78.358L329.352,47.79l-2.944,4.661,21.243,52.255,2.453-1.963Z" transform="translate(-306.343 -27.919)" fill="#fff" stroke="#36b37e" stroke-miterlimit="10" stroke-width="0.599"/>
      <path id="Path_50" data-name="Path 50" d="M329.352,47.79l-2.944,4.661L316.5,61.675l7.849-15.848Z" transform="translate(-306.343 -27.919)" fill="#fff" stroke="#36b37e" stroke-miterlimit="10" stroke-width="0.599"/>
      <path id="Path_51" data-name="Path 51" d="M382.335,84.148l-27.571-3.484,28.8.491Z" transform="translate(-306.343 -27.919)" fill="#172b4d"/>
      <path id="Path_52" data-name="Path 52" d="M357.757,79.731l-9.616-8-.392,1.374,3.826,5.25v3.435Z" transform="translate(-306.343 -27.919)" fill="#172b4d"/>
      <path id="Path_53" data-name="Path 53" d="M345.59,99.7l-2.256,2.8-2.944-2.8L325.035,53.776l1.374-1.325Z" transform="translate(-306.343 -27.919)" fill="#c5e9da" stroke="#36b37e" stroke-miterlimit="10" stroke-width="0.599"/>
    </g>
  </g>
</svg>
