<svg width="375" height="378" viewBox="0 0 375 378" fill="none" xmlns="http://www.w3.org/2000/svg">
<path d="M378.803 94.0773L422.808 109.042H359.67L351.575 108.159L347.651 105.706L361.044 94.0773H378.803Z" fill="#172B4D"/>
<path d="M373.014 66.6007V64.2455C373.014 64.2455 367.863 54.04 367.127 53.9419C366.391 53.8437 306.54 28.9186 306.54 28.9186L329.352 73.3226L338.379 82.9394L373.014 66.6007Z" fill="white" stroke="#36B37E" stroke-width="0.598795" stroke-miterlimit="10"/>
<mask id="mask0_1_75" style="mask-type:alpha" maskUnits="userSpaceOnUse" x="306" y="28" width="68" height="56">
<path d="M373.197 66.8673V64.5121C373.197 64.5121 368.046 54.3066 367.31 54.2084C366.574 54.1103 306.723 29.1852 306.723 29.1852L329.535 73.5892L338.562 83.206L373.197 66.8673Z" fill="white" stroke="#36B37E" stroke-width="0.598795" stroke-miterlimit="10"/>
</mask>
<g mask="url(#mask0_1_75)">
<path d="M348.043 55.071L340.537 55.3163L337.103 49.2322L329.891 49.5757L333.276 55.5126L326.114 55.7579L329.45 61.7929L336.661 61.6457L344.118 61.4494L347.749 67.7298L355.451 67.6807L359.277 74.1573H367.372L363.398 67.5826L359.523 61.106L351.722 61.3023L348.043 55.071Z" fill="#C5E9DA"/>
<path d="M344.462 48.9376L340.929 42.9516L333.669 43.3442L337.103 49.232L344.462 48.9376Z" fill="#36B37E"/>
<path d="M355.745 54.7766L352.017 48.5944L344.462 48.9379L348.043 55.071L355.745 54.7766Z" fill="#36B37E"/>
<path d="M359.768 48.2506L355.99 42.1175L348.386 42.51L352.016 48.594L359.768 48.2506Z" fill="#36B37E"/>
<path d="M363.643 54.5309L355.745 54.7762L359.522 61.1057L367.568 60.9585L375.81 60.7622L371.738 54.2856L367.764 47.9071L359.768 48.2506L363.643 54.5309Z" fill="#36B37E"/>
<path d="M322.876 49.8701L329.891 49.5757L326.604 43.6878L333.669 43.3444L330.333 37.5056L323.367 37.9472L316.547 38.3888L319.687 44.0804L312.917 44.4238L306.343 44.7673L309.336 50.4588L316.008 50.1644L319.148 56.0032L326.114 55.7579L322.876 49.8701Z" fill="#172B4D"/>
<path d="M312.377 56.1992L315.468 62.087L322.385 61.9398L319.147 56.0029L312.377 56.1992Z" fill="#36B37E"/>
<path d="M306.932 33.2858L309.876 38.8302L316.547 38.3886L313.457 32.7952L306.932 33.2858Z" fill="#36B37E"/>
<path d="M340.929 42.9517L348.386 42.5101L344.805 36.5733L341.322 30.7345L334.11 31.2742L327.046 31.8139L330.333 37.5055L337.495 37.0639L340.929 42.9517Z" fill="#36B37E"/>
<path d="M360.013 35.5918L352.311 36.0825L355.99 42.1175L363.84 41.725L360.013 35.5918Z" fill="#36B37E"/>
<path d="M375.908 47.5641L371.885 41.2837L363.84 41.7253L367.764 47.9075L375.908 47.5641Z" fill="#36B37E"/>
<path d="M322.385 61.9398L325.672 68.0239L332.835 67.9257L329.45 61.7926L322.385 61.9398Z" fill="#36B37E"/>
</g>
<path d="M359.67 65.0304L332.197 70.9182L331.511 72.7336L337.643 81.1237L359.67 65.0304Z" fill="#172B4D"/>
<path d="M383.12 72.5377L377.576 67.8275L368.991 61.3018L347.258 70.0354L346.277 75.2854L351.575 82.7923L383.12 72.5377Z" fill="white" stroke="#36B37E" stroke-width="0.598795" stroke-miterlimit="10"/>
<path d="M371.984 76.1191L388.026 70.9182L378.803 94.077L365.557 94.9111L371.984 76.1191Z" fill="white" stroke="#36B37E" stroke-width="0.598795" stroke-miterlimit="10"/>
<path d="M354.764 81.6635L351.575 82.792L350.104 103.743L351.575 108.159L365.557 94.9111L371.984 76.1192L354.764 81.6635Z" fill="white" stroke="#36B37E" stroke-width="0.598795" stroke-miterlimit="10"/>
<path d="M397.69 67.8274L425.408 82.7923L354.764 81.6638L397.69 67.8274Z" fill="#C5E9DA" stroke="#36B37E" stroke-width="0.598795" stroke-miterlimit="10"/>
<path d="M351.575 82.7923V79.3577L329.352 48.7901L326.408 53.4513L347.651 105.706L350.104 103.743L351.575 82.7923Z" fill="white" stroke="#36B37E" stroke-width="0.598795" stroke-miterlimit="10"/>
<path d="M329.352 48.7898L326.408 53.451L316.499 62.6753L324.348 46.8272L329.352 48.7898Z" fill="white" stroke="#36B37E" stroke-width="0.598795" stroke-miterlimit="10"/>
<path d="M382.335 85.1474L354.764 81.6638L383.561 82.1544L382.335 85.1474Z" fill="#172B4D"/>
<path d="M357.757 80.7315L348.141 72.7338L347.749 74.1077L351.575 79.3576V82.7922L357.757 80.7315Z" fill="#172B4D"/>
<path d="M345.59 100.701L343.334 103.498L340.39 100.701L325.035 54.7758L326.409 53.451L345.59 100.701Z" fill="#C5E9DA" stroke="#36B37E" stroke-width="0.598795" stroke-miterlimit="10"/>
<path d="M-35.2046 377.248L65.5333 375.945L26.4966 365.206L30.8965 355.899L55.8637 352.472L49.4684 350.989L32.2779 350.222L-35.2046 377.248Z" fill="#172B4D"/>
<path d="M20.5105 329.716L17.4407 329.767L-8.08917 320.255L20.7663 336.619L25.4732 332.733L20.5105 329.716Z" fill="#36B37E"/>
<path d="M20.5107 329.715L70.1892 320.612L45.3755 344.699L20.5107 329.715Z" fill="#172B4D"/>
<path d="M-8.08917 320.255L41.4869 348.432L30.3336 350.478L3.01301 352.472L-8.08917 320.255Z" fill="white" stroke="#36B37E" stroke-width="0.633632" stroke-miterlimit="10" stroke-linejoin="round"/>
<path d="M41.4871 348.432L70.189 320.612L49.4684 350.989L41.4871 348.432Z" fill="white" stroke="#36B37E" stroke-width="0.633632" stroke-miterlimit="10" stroke-linejoin="round"/>
<path d="M20.7666 336.619L33.6083 326.033L34.9385 327.107L30.8967 342.398L20.7666 336.619Z" fill="white" stroke="#36B37E" stroke-width="0.633632" stroke-miterlimit="10" stroke-linejoin="round"/>
<path d="M34.9383 327.107L46.5521 343.574L41.4871 348.432L30.8965 342.397L34.9383 327.107Z" fill="white" stroke="#36B37E" stroke-width="0.633632" stroke-miterlimit="10" stroke-linejoin="round"/>
<path d="M49.4685 350.989L30.3339 350.477L41.4872 348.432L49.4685 350.989Z" fill="white" stroke="#36B37E" stroke-width="0.633632" stroke-miterlimit="10" stroke-linejoin="round"/>
<path d="M-16.6331 343.114L47.6265 320.613L19.6408 357.688L-16.6331 343.114Z" fill="#C5E9DA" stroke="#36B37E" stroke-width="0.633632" stroke-miterlimit="10"/>
<path d="M-56.7443 336.568L15.3432 363.416L0.864271 368.53L-35.1539 376.865L-56.7443 336.568Z" fill="white" stroke="#36B37E" stroke-width="0.633632" stroke-miterlimit="10" stroke-linejoin="round"/>
<path d="M15.3431 363.416L47.6264 320.613L26.4964 365.206L15.3431 363.416Z" fill="white" stroke="#36B37E" stroke-width="0.633632" stroke-miterlimit="10" stroke-linejoin="round"/>
<path d="M-14.7914 352.217L0.0967395 335.494L2.09206 336.568L-0.0567445 357.689L-14.7914 352.217Z" fill="#36B37E"/>
<path d="M2.09206 336.568L20.9709 355.95L15.343 363.416L-0.0567474 357.688L2.09206 336.568Z" fill="white" stroke="#36B37E" stroke-width="0.633632" stroke-miterlimit="10" stroke-linejoin="round"/>
<path d="M26.4964 365.206L0.864197 368.53L15.3431 363.416L26.4964 365.206Z" fill="white" stroke="#36B37E" stroke-width="0.633632" stroke-miterlimit="10" stroke-linejoin="round"/>
<mask id="mask1_1_75" style="mask-type:alpha" maskUnits="userSpaceOnUse" x="-58" y="336" width="74" height="41">
<path d="M-56.8336 336.759L15.2077 363.309L0.941377 368.223L-35.0768 376.558L-56.8336 336.759Z" fill="white" stroke="#36B37E" stroke-width="0.633632" stroke-miterlimit="10" stroke-linejoin="round"/>
</mask>
<g mask="url(#mask1_1_75)">
<path d="M-13.4611 364.49L-21.2889 364.746L-24.9214 358.456L-32.4423 358.762L-28.9121 365.001L-36.3306 365.206L-32.9027 371.496L-25.3307 371.343L-17.6052 371.138L-13.8192 377.735L-5.73563 377.633L-1.74499 384.383H6.6456L2.55263 377.53L-1.48918 370.831L-9.67512 370.985L-13.4611 364.49Z" fill="#C5E9DA"/>
<path d="M2.75745 363.927L-5.47966 364.234L-1.48901 370.831L6.85042 370.627L15.4457 370.422L11.1992 363.672L7.05506 357.075L-1.2332 357.433L2.75745 363.927Z" fill="#36B37E"/>
<path d="M-0.977466 344.239L-9.00992 344.75L-5.17276 350.989L3.01318 350.58L-0.977466 344.239Z" fill="#36B37E"/>
<path d="M15.5991 356.666L11.3526 350.12L3.01318 350.58L7.05499 357.075L15.5991 356.666Z" fill="#36B37E"/>
</g>
</svg>
