<svg width="1756" height="496" viewBox="0 0 1756 496" fill="none" xmlns="http://www.w3.org/2000/svg">
<path d="M1473.28 488.708L1654.94 459.478L1755.49 443.299L1699.27 384.507L1434.94 427.039L1443.27 454.577L1473.28 488.708Z" fill="#172B4D"/>
<path d="M1636.62 7.95484L1690.68 40.5089L1540.47 464.605L1473.28 488.708L1443.27 454.577L1434.94 427.04L1533.52 184.972L1557.46 162.786L1547.81 139.816L1592.16 26.5671L1636.62 7.95484Z" fill="white"/>
<mask id="mask0_2_371" style="mask-type:alpha" maskUnits="userSpaceOnUse" x="1434" y="7" width="257" height="482">
<path d="M1636.62 7.95484L1690.68 40.5089L1540.47 464.605L1473.28 488.708L1443.27 454.577L1434.94 427.04L1533.52 184.972L1557.46 162.786L1547.81 139.816L1592.16 26.5671L1636.62 7.95484Z" fill="white"/>
</mask>
<g mask="url(#mask0_2_371)">
<path d="M1525.77 227.932L1533.26 206.1L1554.3 202.944L1561.45 181.854L1540.63 184.974L1547.85 164.331L1527 167.228L1519.37 188.166L1511.58 209.587L1489.65 212.887L1481.3 235.086L1458.55 238.977L1449.67 262.177L1472.84 257.991L1495.59 254.101L1503.65 231.491L1525.77 227.932Z" fill="#C5E9DA"/>
<path d="M1547.18 224.257L1568.18 220.877L1575.08 199.6L1554.3 202.944L1547.18 224.257Z" fill="#36B37E"/>
<path d="M1517.87 250.059L1539.73 246.312L1547.18 224.257L1525.77 227.932L1517.87 250.059Z" fill="#36B37E"/>
<path d="M1532.12 268.85L1553.95 264.88L1561.14 242.637L1539.73 246.312L1532.12 268.85Z" fill="#172B4D"/>
<path d="M1509.88 273.115L1517.87 250.059L1495.59 254.101L1487.17 277.229L1478.62 301.064L1501.72 296.431L1524.4 292.094L1532.12 268.85L1509.88 273.115Z" fill="#172B4D"/>
<path d="M1568.26 161.507L1561.45 181.854L1581.82 178.806L1575.08 199.6L1595.45 196.552L1602 176.017L1608.18 156.001L1588.44 158.718L1594.88 138.889L1601.2 119.766L1581.62 122L1575.11 141.383L1554.93 144.171L1547.85 164.332L1568.26 161.507Z" fill="#36B37E"/>
<path d="M1561.59 124.307L1541.37 126.872L1534.26 146.809L1554.93 144.172L1561.59 124.307Z" fill="#172B4D"/>
<path d="M1633.3 134.081L1614.2 136.467L1608.18 156.001L1627.46 153.356L1633.3 134.081Z" fill="#36B37E"/>
<path d="M1568.18 220.877L1561.14 242.637L1582.11 239.034L1602.59 235.28L1609.04 214.075L1615.33 193.352L1595.45 196.552L1588.96 217.534L1568.18 220.877Z" fill="#36B37E"/>
<path d="M1568.2 283.671L1575.33 260.982L1553.95 264.88L1546.41 287.865L1568.2 283.671Z" fill="#36B37E"/>
<path d="M1516.3 315.857L1538.73 311.332L1546.41 287.865L1524.4 292.094L1516.3 315.857Z" fill="#36B37E"/>
<path d="M1534.26 146.809L1513.37 149.482L1505.67 169.974L1527 167.228L1534.26 146.809Z" fill="#36B37E"/>
</g>
<path d="M1636.62 7.95484L1473.28 488.708L1540.47 464.605L1690.68 40.5089L1636.62 7.95484Z" fill="#C5E9DA"/>
<path d="M1648.37 68.1727L1678.88 74.0346L1671.59 94.2306L1648.37 68.1727Z" fill="#172B4D"/>
<path d="M1636.62 7.95484L1690.68 40.5089L1540.47 464.605L1473.28 488.708L1443.27 454.577L1434.94 427.04L1533.52 184.972L1557.46 162.786L1547.81 139.816L1592.16 26.5671L1636.62 7.95484Z" stroke="#36B37E" stroke-width="1.57158" stroke-miterlimit="10" stroke-linejoin="round"/>
<path d="M1578.39 178.898L1599.32 195.011L1571.39 199.505L1578.39 178.898Z" fill="white"/>
<path d="M1636.16 194.584L1599.32 195.011L1578.39 178.898L1557.46 162.786" stroke="#36B37E" stroke-width="1.57158" stroke-miterlimit="10" stroke-linejoin="round"/>
<path d="M1599.32 195.011L1571.39 199.505L1543.28 282.639" stroke="#36B37E" stroke-width="1.57158" stroke-miterlimit="10" stroke-linejoin="round"/>
<path d="M1671.59 94.2307L1625.12 41.8914L1581.44 53.9608" stroke="#36B37E" stroke-width="1.57158" stroke-miterlimit="10" stroke-linejoin="round"/>
<path d="M1594.37 50.276L1585.18 44.4215" stroke="#36B37E" stroke-width="1.57158" stroke-miterlimit="10" stroke-linejoin="round"/>
<path d="M1536.28 303.246L1500.02 267.369L1434.94 427.039L1443.27 454.577L1473.28 488.708L1536.28 303.246Z" fill="white" stroke="#36B37E" stroke-width="1.57158" stroke-miterlimit="10" stroke-linejoin="round"/>
<path d="M1591.34 323.492L1532.08 315.61L1527.33 294.603L1538.46 299.687L1591.34 323.492Z" fill="#172B4D"/>
<path d="M274.599 385.792L176.961 390.078C176.6 390.078 176.058 390.26 175.697 390.621L143.136 423.148C142.775 423.51 142.593 424.051 142.591 424.773L143.961 455.81C143.958 456.893 144.858 457.794 146.122 457.612L229.876 448.473C230.418 448.291 230.959 448.11 231.321 447.749L249.433 420.294L249.614 420.114L276.396 389.038C277.301 387.773 276.223 385.609 274.599 385.792Z" fill="#172B4D"/>
<path d="M235.171 214.281L125.229 222.937L96.7387 266.881L124.148 382.44L156.594 407.636L220.349 402.633L231.942 369.449L264.733 333.451L235.171 214.281Z" fill="white" stroke="#36B37E" stroke-width="1.55764" stroke-miterlimit="10" stroke-linejoin="round"/>
<path d="M231.942 369.449L173.867 266.162L235.171 214.281L264.733 333.45L231.942 369.449Z" fill="#C5E9DA" stroke="#36B37E" stroke-width="1.55764" stroke-miterlimit="10" stroke-linejoin="round"/>
<path d="M220.349 402.633L205.595 322.319L231.942 369.449L220.349 402.633Z" fill="white" stroke="#36B37E" stroke-width="1.55764" stroke-miterlimit="10" stroke-linejoin="round"/>
<path d="M96.7388 266.881L173.867 266.162" stroke="#36B37E" stroke-width="1.55764" stroke-miterlimit="10" stroke-linejoin="round"/>
<path d="M188.238 253.965L167.046 255.693L160.831 266.222L183.905 283.857L188.238 253.965Z" fill="#C5E9DA" stroke="#36B37E" stroke-width="1.55764" stroke-miterlimit="10" stroke-linejoin="round"/>
<mask id="mask1_2_371" style="mask-type:alpha" maskUnits="userSpaceOnUse" x="86" y="200" width="147" height="80">
<path d="M142.707 243.643L157.133 247.954L166.721 238.015L180.426 242.327L170.839 251.905L184.363 256.037L174.956 265.794L161.251 261.843L147.184 257.893L137.055 268.012L122.267 264.063L111.775 274.544L96.2651 270.595L107.298 259.933L117.79 249.452L132.577 253.762L142.707 243.643Z" fill="#C5E9DA"/>
<path d="M152.836 233.884L162.604 224.126L176.309 228.438L166.721 238.015L152.836 233.884Z" fill="#36B37E"/>
<path d="M128.281 239.332L138.591 229.392L152.836 233.884L142.707 243.643L128.281 239.332Z" fill="#36B37E"/>
<path d="M123.984 224.901L134.294 214.962L148.72 219.634L138.591 229.392L123.984 224.901Z" fill="#36B37E"/>
<path d="M113.314 234.841L128.281 239.332L117.79 249.452L102.642 245.142L86.953 240.652L97.9855 230.351L108.837 220.23L123.984 224.901L113.314 234.841Z" fill="#36B37E"/>
<path d="M193.589 246.459L180.426 242.327L189.652 232.75L176.308 228.438L185.715 219.041L198.697 223.354L211.319 227.667L202.635 237.063L215.257 241.016L227.699 245.149L219.195 254.364L206.573 250.412L197.346 259.989L184.363 256.037L193.589 246.459Z" fill="#5E78A5"/>
<path d="M210.33 263.941L201.465 273.517L188.3 269.746L197.347 259.989L210.33 263.941Z" fill="#36B37E"/>
<path d="M232.444 222.766L223.941 231.981L211.319 227.667L220.184 218.452L232.444 222.766Z" fill="#36B37E"/>
<path d="M162.604 224.126L148.72 219.634L158.307 210.056L168.074 200.659L181.598 205.152L194.759 210.006L185.715 219.041L172.191 214.548L162.604 224.126Z" fill="#36B37E"/>
<path d="M129.998 200.531L144.242 205.384L134.294 214.962L119.508 210.29L129.998 200.531Z" fill="#36B37E"/>
<path d="M93.5099 215.379L104.362 205.258L119.508 210.29L108.837 220.23L93.5099 215.379Z" fill="#36B37E"/>
<path d="M188.3 269.746L179.073 279.684L165.187 275.913L174.956 265.794L188.3 269.746Z" fill="#36B37E"/>
</mask>
<g mask="url(#mask1_2_371)">
<path d="M124.71 223.457L234.267 215.184L184.532 255.951L166.101 257.395L159.698 267.327L96.4538 267.166L124.71 223.457Z" fill="#36B37E" stroke="#36B37E" stroke-width="1.55764" stroke-miterlimit="10" stroke-linejoin="round"/>
</g>
<path d="M460.531 400.423L464.542 392.078C464.644 391.867 464.817 391.698 465.03 391.601L525.722 364.067C526.017 363.933 526.358 363.951 526.638 364.114L556.959 381.795C557.73 382.245 557.571 383.402 556.708 383.627L479.934 403.634C479.819 403.664 479.701 403.673 479.583 403.662L461.333 401.852C460.642 401.783 460.23 401.049 460.531 400.423Z" fill="#172B4D"/>
<g clip-path="url(#clip0_2_371)">
<path d="M464.165 335.843L447.146 381.929L466.986 395.127L524.573 367.775L542.237 344.003L499.731 330.713L464.165 335.843Z" fill="white" stroke="#36B37E" stroke-width="1.63467" stroke-miterlimit="10" stroke-linejoin="round"/>
<path d="M484.19 354.382L486.083 358.368L524.573 367.775L527.205 364.173L542.237 344.003L499.731 330.713L484.19 354.382Z" fill="#C5E9DA" stroke="#36B37E" stroke-width="1.63467" stroke-miterlimit="10" stroke-linejoin="round"/>
<path d="M499.731 330.713L486.342 352.816L447.145 381.929" fill="white"/>
<path d="M499.731 330.713L486.342 352.816L447.145 381.929" stroke="#36B37E" stroke-width="1.63467" stroke-miterlimit="10" stroke-linejoin="round"/>
<path d="M479.217 358.01L481.041 347.372L491.185 344.725L486.083 358.368L479.217 358.01Z" fill="#172B4D" stroke="#36B37E" stroke-width="1.63467" stroke-miterlimit="10" stroke-linejoin="round"/>
<path d="M524.573 367.775L486.083 358.368" stroke="#36B37E" stroke-width="1.63467" stroke-miterlimit="10" stroke-linejoin="round"/>
<path d="M511.258 364.508L517.947 359.159L517.224 366.018L512.103 369.717L511.258 364.508Z" fill="white" stroke="#36B37E" stroke-width="1.63467" stroke-miterlimit="10" stroke-linejoin="round"/>
<path d="M517.947 359.159L516.298 335.874" stroke="#36B37E" stroke-width="1.63467" stroke-miterlimit="10" stroke-linejoin="round"/>
<mask id="mask2_2_371" style="mask-type:alpha" maskUnits="userSpaceOnUse" x="446" y="357" width="80" height="39">
<path d="M447.145 381.929L479.217 358.01L490.524 359.336L524.573 367.775L520.439 369.739L466.986 395.127L447.145 381.929Z" fill="white" stroke="#36B37E" stroke-width="1.63467" stroke-miterlimit="10" stroke-linejoin="round"/>
</mask>
<g mask="url(#mask2_2_371)">
<path d="M480.141 369.535L484.534 360.209L494.322 359.859L498.433 350.893L489.103 351.252L493.399 342.199L483.796 342.461L479.5 351.515L474.834 360.744L464.775 360.997L460.012 370.498L449.583 370.927L444.355 380.876L454.968 380.36L465.309 379.746L470.169 369.973L480.141 369.535Z" fill="#36B37E"/>
<path d="M489.928 369.184L499.628 368.649L503.652 359.499L494.321 359.858L489.928 369.184Z" fill="#36B37E"/>
<path d="M475.466 379.22L485.535 378.51L489.928 369.184L480.141 369.535L475.466 379.22Z" fill="#C5E9DA"/>
<path d="M480.86 388.196L490.744 387.573L495.235 377.975L485.535 378.51L480.86 388.196Z" fill="#36B37E"/>
<path d="M470.791 388.906L475.466 379.22L465.309 379.746L460.45 389.519L455.396 399.837L465.835 398.952L476.176 398.338L480.86 388.196L470.791 388.906Z" fill="#36B37E"/>
<path d="M502.633 342.111L498.433 350.893L507.764 350.533L503.652 359.499L512.983 359.139L516.91 350.261L520.741 341.655L511.779 341.839L515.697 333.418L519.431 325.084L510.654 325.181L506.736 333.602L497.502 333.69L493.399 342.199L502.633 342.111Z" fill="#36B37E"/>
<path d="M499.628 368.65L495.235 377.975L504.75 377.528L514.177 376.896L518.202 367.746L522.129 358.868L512.983 359.139L508.959 368.29L499.628 368.65Z" fill="#36B37E"/>
<path d="M496.226 396.733L500.629 386.951L490.744 387.573L486.342 397.356L496.226 396.733Z" fill="#36B37E"/>
<path d="M471.492 408.481L481.658 407.499L486.342 397.356L476.176 398.339L471.492 408.481Z" fill="#36B37E"/>
</g>
</g>
<defs>
<clipPath id="clip0_2_371">
<rect width="105.273" height="67.1849" fill="white" transform="translate(430 351.165) rotate(-25.4057)"/>
</clipPath>
</defs>
</svg>
