<svg width="1473" height="1038" viewBox="0 0 1473 1038" fill="none" xmlns="http://www.w3.org/2000/svg">
<path d="M128.813 719.732L400.472 542.011" stroke="#A5ADBA" stroke-miterlimit="10" stroke-linecap="round" stroke-dasharray="1 1"/>
<path d="M47.8551 480.828L356.781 419.062" stroke="#A5ADBA" stroke-miterlimit="10" stroke-linecap="round" stroke-dasharray="1 1"/>
<path d="M44.0002 224.734L352.926 286.499" stroke="#A5ADBA" stroke-miterlimit="10" stroke-linecap="round" stroke-dasharray="1 1"/>
<path d="M117.504 -17.375L389.163 160.347" stroke="#A5ADBA" stroke-miterlimit="10" stroke-linecap="round" stroke-dasharray="1 1"/>
<path d="M259.631 -216.365L461.383 56.0441" stroke="#A5ADBA" stroke-miterlimit="10" stroke-linecap="round" stroke-dasharray="1 1"/>
<path d="M1095.68 -232.68L894.188 39.4377" stroke="#A5ADBA" stroke-miterlimit="10" stroke-linecap="round" stroke-dasharray="1 1"/>
<path d="M1243.72 -39.5175L972.319 138.204" stroke="#A5ADBA" stroke-miterlimit="10" stroke-linecap="round" stroke-dasharray="1 1"/>
<path d="M1324.68 199.678L1016.01 261.152" stroke="#A5ADBA" stroke-miterlimit="10" stroke-linecap="round" stroke-dasharray="1 1"/>
<path d="M1328.79 455.481L1019.87 393.715" stroke="#A5ADBA" stroke-miterlimit="10" stroke-linecap="round" stroke-dasharray="1 1"/>
<path d="M1255.03 697.59L983.627 519.868" stroke="#A5ADBA" stroke-miterlimit="10" stroke-linecap="round" stroke-dasharray="1 1"/>
<path d="M1112.9 896.58L911.409 624.17" stroke="#A5ADBA" stroke-miterlimit="10" stroke-linecap="round" stroke-dasharray="1 1"/>
<path d="M919.374 1028.56L812.201 694.385" stroke="#A5ADBA" stroke-miterlimit="10" stroke-linecap="round" stroke-dasharray="1 1"/>
<path d="M686.524 950.771L686.524 721.771" stroke="#A5ADBA" stroke-miterlimit="10" stroke-linecap="round" stroke-dasharray="1 1"/>
<path d="M474.491 1037.3L581.921 703.125" stroke="#A5ADBA" stroke-miterlimit="10" stroke-linecap="round" stroke-dasharray="1 1"/>
<path d="M277.107 912.895L478.603 640.777" stroke="#A5ADBA" stroke-miterlimit="10" stroke-linecap="round" stroke-dasharray="1 1"/>
<path d="M128.813 719.732L400.472 542.011" stroke="#A5ADBA" stroke-miterlimit="10" stroke-linecap="round" stroke-dasharray="1 1"/>
<path d="M47.8551 480.828L356.781 419.062" stroke="#A5ADBA" stroke-miterlimit="10" stroke-linecap="round" stroke-dasharray="1 1"/>
<path d="M44.0002 224.734L352.926 286.499" stroke="#A5ADBA" stroke-miterlimit="10" stroke-linecap="round" stroke-dasharray="1 1"/>
<path d="M117.504 -17.375L389.163 160.347" stroke="#A5ADBA" stroke-miterlimit="10" stroke-linecap="round" stroke-dasharray="1 1"/>
<path d="M259.631 -216.365L461.383 56.0441" stroke="#A5ADBA" stroke-miterlimit="10" stroke-linecap="round" stroke-dasharray="1 1"/>
<g clip-path="url(#clip0_1_6)">
<path d="M1114.27 301.423L1232.14 179.735L1403.88 222.388L1285.33 344.038L1114.27 301.423Z" fill="#C5E9DA" stroke="#36B37E" stroke-width="2.29137" stroke-miterlimit="10" stroke-linejoin="round"/>
<path d="M1285.33 344.038L1403.88 222.388L1440.51 389.632L1330.23 508.572L1285.33 344.038Z" fill="white" stroke="#36B37E" stroke-width="2.29137" stroke-miterlimit="10" stroke-linejoin="round"/>
<path d="M1285.33 344.038L1213.12 407.489L1330.23 508.572L1285.33 344.038Z" fill="white" stroke="#36B37E" stroke-width="2.29137" stroke-miterlimit="10" stroke-linejoin="round"/>
<path d="M1213.12 407.489L1114.27 301.423L1285.33 344.038L1213.12 407.489Z" fill="white" stroke="#36B37E" stroke-width="2.29137" stroke-miterlimit="10" stroke-linejoin="round"/>
<path d="M1330.23 508.572L1158.14 462.18L1213.12 407.489L1330.23 508.572Z" fill="#C5E9DA" stroke="#36B37E" stroke-width="2.29137" stroke-miterlimit="10" stroke-linejoin="round"/>
<path d="M1114.27 301.423L1158.14 462.179L1213.12 407.489L1114.27 301.423Z" fill="white" stroke="#36B37E" stroke-width="2.29137" stroke-miterlimit="10" stroke-linejoin="round"/>
<path d="M1249.12 375.792L1270.98 356.748L1249.12 375.792Z" fill="#644DF2"/>
<path d="M1266.23 339.329L1270.98 356.748L1285.33 344.038L1266.23 339.329Z" fill="#36B37E"/>
<path d="M1266.23 339.329L1382.61 217.144L1353.11 209.861L1237.21 332.141L1266.23 339.329Z" fill="#36B37E"/>
<path d="M1215.4 326.592L1331.78 204.408L1302.28 197.124L1186.38 319.404L1215.4 326.592Z" fill="#36B37E"/>
<path d="M1215.4 326.592L1233.04 391.23L1249.12 375.792L1237.21 332.14L1215.4 326.592Z" fill="#36B37E"/>
<path d="M1186.38 319.404L1209.28 403.35L1158.89 349.229L1148.12 309.775L1186.38 319.404Z" fill="#36B37E"/>
<path d="M1148.12 309.775L1165.96 292.505L1131.31 283.696L1114.27 301.423L1148.12 309.775Z" fill="#172B4D"/>
<path d="M1202.69 302.325L1219.3 284.712L1181.52 275.178L1164.43 292.696L1202.69 302.325Z" fill="#172B4D"/>
<path d="M1181.52 275.178L1199.36 257.909L1164.71 249.1L1147.62 266.617L1181.52 275.178Z" fill="#172B4D"/>
<path d="M1208.52 412.126L1213.12 407.489L1175.71 467.08L1158.14 462.18L1208.52 412.126Z" fill="#172B4D"/>
<path d="M1415.4 274.492L1393.63 298.02L1402.45 335.3L1423.65 312.153L1415.4 274.492Z" fill="#36B37E"/>
<path d="M1400.6 327.688L1406.69 355.791L1385.5 378.938L1378.93 350.739L1307.78 426.305C1307.78 426.305 1327.25 497.659 1330.23 508.572C1333.21 519.485 1440.56 389.842 1440.56 389.842L1421.97 305.171L1400.6 327.688Z" fill="#172B4D"/>
</g>
<g opacity="0.88">
<g clip-path="url(#clip1_1_6)">
<path d="M395.706 781.101L354.867 845.873L274.94 842.952L316.087 778.134L395.706 781.101Z" fill="#C5E9DA" stroke="#36B37E" stroke-width="1.11251" stroke-miterlimit="10" stroke-linejoin="round"/>
<path d="M316.088 778.134L274.941 842.952L243.213 772.375L280.949 709.525L316.088 778.134Z" fill="white" stroke="#36B37E" stroke-width="1.11251" stroke-miterlimit="10" stroke-linejoin="round"/>
<path d="M316.088 778.134L342.135 743.363L280.949 709.525L316.088 778.134Z" fill="white" stroke="#36B37E" stroke-width="1.11251" stroke-miterlimit="10" stroke-linejoin="round"/>
<path d="M342.135 743.363L395.707 781.101L316.088 778.134L342.135 743.363Z" fill="white" stroke="#36B37E" stroke-width="1.11251" stroke-miterlimit="10" stroke-linejoin="round"/>
<path d="M280.949 709.525L361.375 714.067L342.135 743.363L280.949 709.525Z" fill="#C5E9DA" stroke="#36B37E" stroke-width="1.11251" stroke-miterlimit="10" stroke-linejoin="round"/>
<path d="M395.707 781.101L361.375 714.067L342.135 743.363L395.707 781.101Z" fill="white" stroke="#36B37E" stroke-width="1.11251" stroke-miterlimit="10" stroke-linejoin="round"/>
<path d="M329.155 760.726L321.253 771.18L329.155 760.726Z" fill="#644DF2"/>
<path d="M324.973 778.444L321.253 771.18L316.088 778.134L324.973 778.444Z" fill="#36B37E"/>
<path d="M324.973 778.444L284.838 843.296L298.562 843.779L338.477 778.929L324.973 778.444Z" fill="#36B37E"/>
<path d="M348.639 779.358L308.504 844.21L322.228 844.693L362.144 779.843L348.639 779.358Z" fill="#36B37E"/>
<path d="M348.639 779.358L334.835 752.404L329.155 760.726L338.477 778.929L348.639 779.358Z" fill="#36B37E"/>
<path d="M362.143 779.843L344.216 744.838L371.533 764.098L379.959 780.55L362.143 779.843Z" fill="#36B37E"/>
<path d="M379.959 780.55L373.673 789.845L389.818 790.524L395.707 781.101L379.959 780.55Z" fill="#172B4D"/>
<path d="M356.515 788.912L350.801 798.245L368.397 798.954L374.331 789.619L356.515 788.912Z" fill="#172B4D"/>
<path d="M368.397 798.954L362.111 808.249L378.255 808.929L384.189 799.593L368.397 798.954Z" fill="#172B4D"/>
<path d="M343.738 740.885L342.135 743.363L353.147 713.531L361.375 714.067L343.738 740.885Z" fill="#172B4D"/>
<path d="M265.01 820.974L272.453 808.546L265.09 792.875L257.865 805.081L265.01 820.974Z" fill="#36B37E"/>
<path d="M266.616 796.07L261.312 784.205L268.538 771.998L274.061 783.861L298.518 743.829C298.518 743.829 283.28 714.075 280.949 709.525C278.618 704.974 243.168 772.288 243.168 772.288L259.256 808.014L266.616 796.07Z" fill="#172B4D"/>
</g>
</g>
<g opacity="0.32">
<g clip-path="url(#clip2_1_6)">
<path d="M515.39 95.1901L533.644 118.444L522.213 147.129L503.981 123.757L515.39 95.1901Z" fill="#C5E9DA" stroke="#36B37E" stroke-width="1.11251" stroke-miterlimit="10" stroke-linejoin="round"/>
<path d="M503.981 123.757L522.213 147.128L492.432 149.509L474.474 127.633L503.981 123.757Z" fill="white" stroke="#36B37E" stroke-width="1.11251" stroke-miterlimit="10" stroke-linejoin="round"/>
<path d="M503.981 123.757L494.717 109.774L474.474 127.633L503.981 123.757Z" fill="white" stroke="#36B37E" stroke-width="1.11251" stroke-miterlimit="10" stroke-linejoin="round"/>
<path d="M494.717 109.774L515.39 95.1894L503.981 123.756L494.717 109.774Z" fill="white" stroke="#36B37E" stroke-width="1.11251" stroke-miterlimit="10" stroke-linejoin="round"/>
<path d="M474.474 127.633L486.56 98.9767L494.717 109.774L474.474 127.633Z" fill="#C5E9DA" stroke="#36B37E" stroke-width="1.11251" stroke-miterlimit="10" stroke-linejoin="round"/>
<path d="M515.39 95.1894L486.56 98.9765L494.717 109.774L515.39 95.1894Z" fill="white" stroke="#36B37E" stroke-width="1.11251" stroke-miterlimit="10" stroke-linejoin="round"/>
<path d="M499.346 116.746L502.123 120.976L499.346 116.746Z" fill="#644DF2"/>
<path d="M505.247 120.566L502.123 120.976L503.981 123.756L505.247 120.566Z" fill="#36B37E"/>
<path d="M505.247 120.566L523.622 143.574L525.578 138.646L507.175 115.718L505.247 120.566Z" fill="#36B37E"/>
<path d="M508.649 112.078L527.025 135.087L528.981 130.159L510.578 107.231L508.649 112.078Z" fill="#36B37E"/>
<path d="M508.649 112.079L497.057 113.601L499.346 116.746L507.175 115.718L508.649 112.079Z" fill="#36B37E"/>
<path d="M510.578 107.231L495.523 109.208L506.071 101.774L513.146 100.844L510.578 107.231Z" fill="#36B37E"/>
<path d="M513.146 100.844L515.711 104.336L518.052 98.5535L515.39 95.1895L513.146 100.844Z" fill="#172B4D"/>
<path d="M513.145 110.454L515.798 113.743L518.339 107.437L515.714 104.068L513.145 110.454Z" fill="#172B4D"/>
<path d="M518.339 107.437L520.903 110.928L523.245 105.146L520.62 101.777L518.339 107.437Z" fill="#172B4D"/>
<path d="M494.024 108.87L494.717 109.774L485.298 101.899L486.56 98.9767L494.024 108.87Z" fill="#172B4D"/>
<path d="M512.932 147.888L509.379 143.569L502.725 144.213L506.226 148.424L512.932 147.888Z" fill="#36B37E"/>
<path d="M504.085 144.073L499.082 144.462L495.581 140.251L500.611 139.782L489.228 125.694C489.228 125.694 476.431 127.375 474.474 127.633C472.517 127.89 492.395 149.514 492.395 149.514L507.473 148.299L504.085 144.073Z" fill="#172B4D"/>
</g>
</g>
<g clip-path="url(#clip3_1_6)">
<path d="M30.2924 350.725L178.988 258.452C178.988 258.452 59.7305 446.868 57.7307 446.055C57.7307 446.055 39.1872 376.239 30.2924 350.725Z" fill="white" stroke="#36B37E" stroke-width="1.43899" stroke-miterlimit="10" stroke-linejoin="round"/>
<path d="M178.988 258.452L183.471 264.623C183.471 264.623 188.303 459.183 187.999 461.079C187.695 462.974 190.678 464.808 185.995 466.012C181.312 467.216 98.3844 454.184 77.9909 450.092C57.7308 446.055 57.7308 446.055 57.7308 446.055L178.988 258.452Z" fill="#36B37E"/>
<path d="M86.7358 339.485L123.14 437.215L185.449 403.506L182.954 301.068L86.7358 339.485Z" fill="#C5E9DA"/>
<mask id="mask0_1_6" style="mask-type:alpha" maskUnits="userSpaceOnUse" x="87" y="301" width="99" height="137">
<path d="M87.2161 340.189L123.62 437.919L185.93 404.211L183.434 301.773L87.2161 340.189Z" fill="#C5E9DA"/>
</mask>
<g mask="url(#mask0_1_6)">
<path d="M176.527 399.561L159.871 396.211L159.487 417.8L141.573 414.871L140.431 438.327L159.017 440.752L176.694 443.118L193.463 445.426L192.779 423.404L176.494 420.671L176.527 399.561Z" fill="#36B37E"/>
<path d="M142.439 392.857L159.871 396.211L160.221 375.851L143.46 371.993L142.439 392.857Z" fill="#36B37E"/>
<path d="M124.208 389.179L122.671 411.697L141.573 414.871L142.439 392.857L124.208 389.179Z" fill="#36B37E"/>
<path d="M124.208 389.179L125.658 368.023L107.002 363.861L104.935 385.387L124.208 389.179Z" fill="#36B37E"/>
<path d="M104.935 385.387L84.8086 381.404L81.7964 404.877L78.5884 429.978L100.378 432.928L120.992 435.711L122.671 411.697L102.727 408.41L104.935 385.387Z" fill="#36B37E"/>
<path d="M222.013 408.41L220.672 389.537L206.607 386.308L191.821 382.942L191.334 364.261L176.39 360.519L160.725 356.641L160.221 375.851L176.448 379.492L176.527 399.561L192.383 402.585L192.779 423.404L208.344 425.999L207.465 405.606L222.013 408.41Z" fill="#36B37E"/>
<path d="M204.982 350.546L190.867 346.675L191.334 364.261L205.824 367.973L204.982 350.546Z" fill="#36B37E"/>
<path d="M144.26 352.437L160.725 356.641L161.037 338.284L145.135 333.843L128.379 329.21L127.075 348.096L125.658 368.023L143.46 371.993L144.26 352.437Z" fill="#36B37E"/>
<path d="M109.035 343.563L90.1955 338.705L87.5458 359.374L107.002 363.861L109.035 343.563Z" fill="#36B37E"/>
<path d="M66.9148 354.72L63.3736 377.201L84.8086 381.404L87.5458 359.374L66.9148 354.72Z" fill="#36B37E"/>
</g>
<path d="M86.7358 339.485L140.509 317.995L101.751 379.755L86.7358 339.485Z" fill="#172B4D"/>
<path d="M57.3726 333.769L45.728 402.194" stroke="#36B37E" stroke-width="1.43899" stroke-miterlimit="10" stroke-linejoin="round"/>
<path d="M54.9437 348.159L50.2942 338.193L57.3726 333.769L54.9437 348.159Z" fill="#172B4D"/>
<path d="M150.728 276.017L165.11 279.996" stroke="#36B37E" stroke-width="1.43899" stroke-miterlimit="10" stroke-linejoin="round"/>
<path d="M97.0221 369.602L132.48 459.337" stroke="white" stroke-width="1.43899" stroke-miterlimit="10" stroke-linejoin="round"/>
</g>
<g clip-path="url(#clip4_1_6)">
<path d="M1058.3 107.296L949.432 92.8536L903.976 48.7558L910.009 -62.6215L924.795 -83.9283L957.777 -79.3161L1064.14 35.2942L1058.3 107.296Z" fill="#C5E9DA" stroke="#36B37E" stroke-width="1.51665" stroke-miterlimit="10" stroke-linejoin="round"/>
<path d="M986.28 97.7481L983.764 65.7267C983.764 65.7267 972.766 95.9393 968.192 95.3491C963.492 94.6724 986.28 97.7481 986.28 97.7481Z" fill="#36B37E"/>
<path d="M1012.3 101.221L1037.25 6.47804" stroke="#36B37E" stroke-width="1.51665" stroke-miterlimit="10"/>
<path d="M1030.96 30.1733L1029.09 -2.50924" stroke="#36B37E" stroke-width="1.51665" stroke-miterlimit="10"/>
<path d="M909.495 -39.1957L953.99 -10.2964L965.004 2.60033L953.454 11.2429L908.71 -25.253L909.495 -39.1957Z" fill="white" stroke="#36B37E" stroke-width="1.51665"/>
<path d="M983.322 81.1291L983.656 31.7011" stroke="#36B37E" stroke-width="1.51665" stroke-miterlimit="10"/>
<path d="M921.147 -22.9384L908.272 -29.6576L904.032 48.811L949.488 92.9088L953.433 12.2048L947.717 2.88451L921.147 -22.9384Z" fill="#172B4D"/>
</g>
<g opacity="0.48" clip-path="url(#clip5_1_6)">
<path d="M544.805 626.853L628.36 677.82C628.36 677.82 640.732 687.566 629.099 708.557C617.467 729.548 603.373 724.457 603.373 724.457L516.596 674.513C516.596 674.513 506.313 665.044 516.625 645.624C528.555 623.038 544.805 626.853 544.805 626.853Z" fill="#C5E9DA" stroke="#36B37E" stroke-width="0.736762" stroke-miterlimit="10"/>
<path d="M544.805 626.853C544.805 626.853 556.647 634.114 544.013 658.016C532.14 680.402 516.596 674.513 516.596 674.513C516.596 674.513 506.608 664.207 516.625 645.624C526.643 627.041 538.666 626.71 544.805 626.853Z" fill="#36B37E"/>
<path d="M621.728 673.74C621.728 673.74 614.002 685.502 593.66 693.628C572.087 702.268 559.799 699.377 559.799 699.377L577.23 709.442C577.23 709.442 586.378 711.374 608.929 700.847C627.34 692.273 632.597 683.812 632.597 683.812L628.26 677.791L621.728 673.74Z" fill="#172B4D"/>
<path d="M592.106 655.934C592.106 655.934 584.626 666.465 562.497 673.643C540.369 680.821 525.179 679.535 525.179 679.535L542.611 689.599C542.611 689.599 556.733 691.392 576.674 683.15C595.154 675.462 605.705 664.244 605.705 664.244L595.015 657.694L592.106 655.934Z" fill="#36B37E"/>
<path d="M544.013 658.016C544.013 658.016 567.202 659.764 580.83 648.781L565.88 639.702C565.88 639.702 559.061 642.292 549.733 640.797C549.733 640.797 547.276 651.582 544.013 658.016Z" fill="#172B4D"/>
<path d="M535.16 648.85L532.217 652.665L533.201 670.135C533.201 670.135 539.967 665.47 544.013 658.016L540.425 649.392L535.16 648.85Z" fill="white" stroke="#36B37E" stroke-width="0.736762" stroke-miterlimit="10"/>
<path d="M548.422 632.178C548.422 632.178 547.422 627.932 544.77 626.788L530.734 647.087C530.734 647.087 535.618 648.765 536.833 649.441C538.084 650.181 540.378 651.438 540.378 651.438L548.985 645.84C549.02 645.904 551.97 639.056 548.422 632.178Z" fill="white" stroke="#36B37E" stroke-width="0.736762" stroke-miterlimit="10"/>
<path d="M631.436 703.646C631.436 703.646 618.907 712.506 603.623 715.312C589.419 717.942 588.108 715.721 588.108 715.721L603.373 724.457C603.373 724.457 609.895 726.662 618.064 721.642C626.233 716.623 631.436 703.646 631.436 703.646Z" fill="#36B37E"/>
<path d="M536.868 649.505C536.868 649.505 535.774 642.955 534.462 640.734C533.151 638.512 532.859 637.832 532.859 637.832L529.755 643.335L530.77 647.152L536.868 649.505Z" fill="white" stroke="#36B37E" stroke-width="0.736762" stroke-miterlimit="10"/>
<path d="M532.153 652.701L527.825 651.725L512.312 664.17C512.312 664.17 511.914 665.736 514.143 670.987L515.519 673.173L533.892 655.696C533.827 655.731 534.348 653.171 532.153 652.701Z" fill="white" stroke="#36B37E" stroke-width="0.736762" stroke-miterlimit="10"/>
<path d="M532.153 652.701C532.153 652.701 526.405 662.864 526.627 662.657C526.849 662.45 535.463 657.016 535.463 657.016C535.463 657.016 535.151 652.643 532.153 652.701Z" fill="white" stroke="#36B37E" stroke-width="0.736762" stroke-miterlimit="10"/>
</g>
<g clip-path="url(#clip6_1_6)">
<path d="M919.352 816.519L1012.29 657.525C1012.29 657.525 1030.19 633.904 1070.09 655.049C1110 676.194 1100.92 702.888 1100.92 702.888L1010.01 867.909C1010.01 867.909 992.562 887.59 955.662 868.873C912.748 847.225 919.352 816.519 919.352 816.519Z" fill="#C5E9DA" stroke="#36B37E" stroke-width="1.38636" stroke-miterlimit="10"/>
<path d="M919.354 816.519C919.354 816.519 932.597 793.985 978.011 816.911C1020.55 838.457 1010.02 867.909 1010.02 867.909C1010.02 867.909 990.979 887.064 955.664 868.873C920.348 850.683 919.302 828.075 919.354 816.519Z" fill="#36B37E"/>
<path d="M1004.85 670.145C1004.85 670.145 1027.25 684.267 1043.26 722.25C1060.27 762.533 1055.27 785.752 1055.27 785.752L1073.59 752.603C1073.59 752.603 1076.9 735.324 1056.3 693.268C1039.52 658.934 1023.42 649.342 1023.42 649.342L1012.24 657.714L1004.85 670.145Z" fill="#172B4D"/>
<path d="M972.398 726.503C972.398 726.503 992.475 740.205 1006.76 781.583C1021.04 822.962 1019.16 851.584 1019.16 851.584L1037.48 818.435C1037.48 818.435 1040.35 791.803 1024.14 754.577C1009.03 720.081 987.552 700.625 987.552 700.625L975.606 720.969L972.398 726.503Z" fill="#36B37E"/>
<path d="M978.011 816.911C978.011 816.911 980.481 773.223 959.338 747.97L942.785 776.417C942.785 776.417 947.897 789.153 945.414 806.756C945.414 806.756 965.792 810.998 978.011 816.911Z" fill="#172B4D"/>
<path d="M961.079 833.89L968.36 839.291L1001.19 836.824C1001.19 836.824 992.178 824.259 978.011 816.911L961.912 823.964L961.079 833.89Z" fill="white" stroke="#36B37E" stroke-width="1.38636" stroke-miterlimit="10"/>
<path d="M929.245 809.528C929.245 809.528 921.292 811.558 919.234 816.588L957.918 842.278C957.918 842.278 960.904 833.031 962.131 830.721C963.479 828.342 965.764 823.981 965.764 823.981L954.928 807.986C955.048 807.917 942.059 802.609 929.245 809.528Z" fill="white" stroke="#36B37E" stroke-width="1.38636" stroke-miterlimit="10"/>
<path d="M1060.77 650.826C1060.77 650.826 1077.88 674.085 1083.7 702.741C1089.15 729.371 1085.02 731.917 1085.02 731.917L1100.92 702.888C1100.92 702.888 1104.83 690.542 1095.1 675.349C1085.37 660.157 1060.77 650.826 1060.77 650.826Z" fill="#36B37E"/>
<path d="M962.252 830.652C962.252 830.652 949.967 832.942 945.834 835.488C941.701 838.034 940.431 838.608 940.431 838.608L950.894 844.253L958.039 842.209L962.252 830.652Z" fill="white" stroke="#36B37E" stroke-width="1.38636" stroke-miterlimit="10"/>
<path d="M968.43 839.411L966.746 847.587L990.708 876.335C990.708 876.335 993.669 877.027 1003.47 872.65L1007.53 869.984L974.003 836.033C974.072 836.154 969.236 835.264 968.43 839.411Z" fill="white" stroke="#36B37E" stroke-width="1.38636" stroke-miterlimit="10"/>
<path d="M968.429 839.411C968.429 839.411 987.753 849.866 987.355 849.456C986.958 849.045 976.431 833.031 976.431 833.031C976.431 833.031 968.215 833.772 968.429 839.411Z" fill="white" stroke="#36B37E" stroke-width="1.38636" stroke-miterlimit="10"/>
</g>
<defs>
<clipPath id="clip0_1_6">
<rect width="302.379" height="345.234" fill="white" transform="translate(1090.2 217.344) rotate(-15.2643)"/>
</clipPath>
<clipPath id="clip1_1_6">
<rect width="136.667" height="156.036" fill="white" transform="translate(414.162 816.056) rotate(152.88)"/>
</clipPath>
<clipPath id="clip2_1_6">
<rect width="52.7646" height="60.2428" fill="white" transform="translate(530.495 93.0137) rotate(82.5164)"/>
</clipPath>
<clipPath id="clip3_1_6">
<rect width="217" height="220.885" fill="white" transform="translate(83.1364 218.736) rotate(22.1095)"/>
</clipPath>
<clipPath id="clip4_1_6">
<rect width="220.218" height="147.722" fill="white" transform="translate(1029.92 149.65) rotate(-145.241)"/>
</clipPath>
<clipPath id="clip5_1_6">
<rect width="123.408" height="98.3577" fill="white" transform="translate(586.088 598.736) rotate(61.0741)"/>
</clipPath>
<clipPath id="clip6_1_6">
<rect width="232.215" height="185.079" fill="white" transform="translate(865 739.844) rotate(-30)"/>
</clipPath>
</defs>
</svg>
