<svg width="631" height="650" viewBox="0 0 631 650" fill="none" xmlns="http://www.w3.org/2000/svg">
<path d="M55.5194 468.094L171.3 393.777" stroke="#A5ADBA" stroke-width="0.426199" stroke-miterlimit="10" stroke-linecap="round" stroke-dasharray="0.43 0.43"/>
<path d="M21.0156 368.193L152.679 342.365" stroke="#A5ADBA" stroke-width="0.426199" stroke-miterlimit="10" stroke-linecap="round" stroke-dasharray="0.43 0.43"/>
<path d="M19.3723 261.103L151.036 286.931" stroke="#A5ADBA" stroke-width="0.426199" stroke-miterlimit="10" stroke-linecap="round" stroke-dasharray="0.43 0.43"/>
<path d="M50.6993 159.862L166.48 234.179" stroke="#A5ADBA" stroke-width="0.426199" stroke-miterlimit="10" stroke-linecap="round" stroke-dasharray="0.43 0.43"/>
<path d="M111.274 76.6511L197.26 190.563" stroke="#A5ADBA" stroke-width="0.426199" stroke-miterlimit="10" stroke-linecap="round" stroke-dasharray="0.43 0.43"/>
<path d="M193.865 21.5829L239.542 161.202" stroke="#A5ADBA" stroke-width="0.426199" stroke-miterlimit="10" stroke-linecap="round" stroke-dasharray="0.43 0.43"/>
<path d="M293.215 1.11523V149.749" stroke="#A5ADBA" stroke-width="0.426199" stroke-miterlimit="10" stroke-linecap="round" stroke-dasharray="0.43 0.43"/>
<path d="M383.365 17.9278L337.688 157.547" stroke="#A5ADBA" stroke-width="0.426199" stroke-miterlimit="10" stroke-linecap="round" stroke-dasharray="0.43 0.43"/>
<path d="M467.599 69.8276L381.722 183.618" stroke="#A5ADBA" stroke-width="0.426199" stroke-miterlimit="10" stroke-linecap="round" stroke-dasharray="0.43 0.43"/>
<path d="M530.692 150.602L415.021 224.919" stroke="#A5ADBA" stroke-width="0.426199" stroke-miterlimit="10" stroke-linecap="round" stroke-dasharray="0.43 0.43"/>
<path d="M565.197 250.626L433.642 276.333" stroke="#A5ADBA" stroke-width="0.426199" stroke-miterlimit="10" stroke-linecap="round" stroke-dasharray="0.43 0.43"/>
<path d="M566.95 357.594L435.286 331.765" stroke="#A5ADBA" stroke-width="0.426199" stroke-miterlimit="10" stroke-linecap="round" stroke-dasharray="0.43 0.43"/>
<path d="M535.513 458.836L419.841 384.519" stroke="#A5ADBA" stroke-width="0.426199" stroke-miterlimit="10" stroke-linecap="round" stroke-dasharray="0.43 0.43"/>
<path d="M474.939 542.047L389.061 428.135" stroke="#A5ADBA" stroke-width="0.426199" stroke-miterlimit="10" stroke-linecap="round" stroke-dasharray="0.43 0.43"/>
<path d="M392.456 597.237L346.779 457.496" stroke="#A5ADBA" stroke-width="0.426199" stroke-miterlimit="10" stroke-linecap="round" stroke-dasharray="0.43 0.43"/>
<path d="M293.215 564.707L293.215 468.947" stroke="#A5ADBA" stroke-width="0.426199" stroke-miterlimit="10" stroke-linecap="round" stroke-dasharray="0.43 0.43"/>
<path d="M202.848 600.89L248.634 461.149" stroke="#A5ADBA" stroke-width="0.426199" stroke-miterlimit="10" stroke-linecap="round" stroke-dasharray="0.43 0.43"/>
<path d="M118.722 548.869L204.6 435.078" stroke="#A5ADBA" stroke-width="0.426199" stroke-miterlimit="10" stroke-linecap="round" stroke-dasharray="0.43 0.43"/>
<path d="M55.5194 468.094L171.3 393.777" stroke="#A5ADBA" stroke-width="0.426199" stroke-miterlimit="10" stroke-linecap="round" stroke-dasharray="0.43 0.43"/>
<path d="M21.0156 368.193L152.679 342.365" stroke="#A5ADBA" stroke-width="0.426199" stroke-miterlimit="10" stroke-linecap="round" stroke-dasharray="0.43 0.43"/>
<path d="M19.3723 261.103L151.036 286.931" stroke="#A5ADBA" stroke-width="0.426199" stroke-miterlimit="10" stroke-linecap="round" stroke-dasharray="0.43 0.43"/>
<path d="M50.6993 159.862L166.48 234.179" stroke="#A5ADBA" stroke-width="0.426199" stroke-miterlimit="10" stroke-linecap="round" stroke-dasharray="0.43 0.43"/>
<path d="M111.274 76.6511L197.26 190.563" stroke="#A5ADBA" stroke-width="0.426199" stroke-miterlimit="10" stroke-linecap="round" stroke-dasharray="0.43 0.43"/>
<path d="M193.865 21.5829L239.542 161.202" stroke="#A5ADBA" stroke-width="0.426199" stroke-miterlimit="10" stroke-linecap="round" stroke-dasharray="0.43 0.43"/>
<g clip-path="url(#clip0_2_372)">
<path d="M478.195 274.088L528.432 222.225L601.628 240.403L551.098 292.251L478.195 274.088Z" fill="#C5E9DA" stroke="#36B37E" stroke-width="0.976579" stroke-miterlimit="10" stroke-linejoin="round"/>
<path d="M551.099 292.251L601.629 240.404L617.237 311.683L570.236 362.375L551.099 292.251Z" fill="white" stroke="#36B37E" stroke-width="0.976579" stroke-miterlimit="10" stroke-linejoin="round"/>
<path d="M551.099 292.253L520.325 319.296L570.236 362.377L551.099 292.253Z" fill="white" stroke="#36B37E" stroke-width="0.976579" stroke-miterlimit="10" stroke-linejoin="round"/>
<path d="M520.325 319.294L478.196 274.089L551.099 292.252L520.325 319.294Z" fill="white" stroke="#36B37E" stroke-width="0.976579" stroke-miterlimit="10" stroke-linejoin="round"/>
<path d="M570.236 362.377L496.894 342.604L520.325 319.295L570.236 362.377Z" fill="#C5E9DA" stroke="#36B37E" stroke-width="0.976579" stroke-miterlimit="10" stroke-linejoin="round"/>
<path d="M478.196 274.089L496.893 342.604L520.325 319.294L478.196 274.089Z" fill="white" stroke="#36B37E" stroke-width="0.976579" stroke-miterlimit="10" stroke-linejoin="round"/>
<path d="M535.668 305.785L544.985 297.668L535.668 305.785Z" fill="#644DF2"/>
<path d="M542.959 290.244L544.985 297.668L551.099 292.251L542.959 290.244Z" fill="#36B37E"/>
<path d="M542.959 290.245L592.562 238.17L579.99 235.065L530.59 287.181L542.959 290.245Z" fill="#36B37E"/>
<path d="M521.296 284.816L570.899 232.742L558.327 229.637L508.927 281.753L521.296 284.816Z" fill="#36B37E"/>
<path d="M521.296 284.816L528.814 312.364L535.668 305.785L530.59 287.18L521.296 284.816Z" fill="#36B37E"/>
<path d="M508.926 281.753L518.69 317.531L497.211 294.465L492.622 277.65L508.926 281.753Z" fill="#36B37E"/>
<path d="M492.622 277.649L500.224 270.289L485.456 266.535L478.196 274.09L492.622 277.649Z" fill="#172B4D"/>
<path d="M515.878 274.474L522.959 266.967L506.858 262.904L499.573 270.37L515.878 274.474Z" fill="#172B4D"/>
<path d="M506.858 262.904L514.46 255.544L499.693 251.789L492.408 259.255L506.858 262.904Z" fill="#172B4D"/>
<path d="M518.366 321.271L520.325 319.295L504.383 344.693L496.894 342.604L518.366 321.271Z" fill="#172B4D"/>
<path d="M606.536 262.611L597.259 272.639L601.019 288.527L610.051 278.662L606.536 262.611Z" fill="#36B37E"/>
<path d="M600.23 285.283L602.826 297.26L593.793 307.126L590.994 295.107L560.668 327.314C560.668 327.314 568.967 357.725 570.236 362.376C571.506 367.027 617.262 311.773 617.262 311.773L609.336 275.686L600.23 285.283Z" fill="#172B4D"/>
</g>
<g opacity="0.88">
<g clip-path="url(#clip1_2_372)">
<path d="M169.271 505.106L151.865 532.712L117.8 531.467L135.337 503.842L169.271 505.106Z" fill="#C5E9DA" stroke="#36B37E" stroke-width="0.474153" stroke-miterlimit="10" stroke-linejoin="round"/>
<path d="M135.336 503.841L117.799 531.467L104.277 501.387L120.36 474.6L135.336 503.841Z" fill="white" stroke="#36B37E" stroke-width="0.474153" stroke-miterlimit="10" stroke-linejoin="round"/>
<path d="M135.336 503.841L146.437 489.022L120.36 474.6L135.336 503.841Z" fill="white" stroke="#36B37E" stroke-width="0.474153" stroke-miterlimit="10" stroke-linejoin="round"/>
<path d="M146.437 489.022L169.27 505.106L135.336 503.842L146.437 489.022Z" fill="white" stroke="#36B37E" stroke-width="0.474153" stroke-miterlimit="10" stroke-linejoin="round"/>
<path d="M120.36 474.6L154.637 476.536L146.437 489.022L120.36 474.6Z" fill="#C5E9DA" stroke="#36B37E" stroke-width="0.474153" stroke-miterlimit="10" stroke-linejoin="round"/>
<path d="M169.27 505.106L154.638 476.536L146.437 489.022L169.27 505.106Z" fill="white" stroke="#36B37E" stroke-width="0.474153" stroke-miterlimit="10" stroke-linejoin="round"/>
<path d="M140.905 496.421L137.537 500.877L140.905 496.421Z" fill="#644DF2"/>
<path d="M139.123 503.973L137.538 500.877L135.336 503.841L139.123 503.973Z" fill="#36B37E"/>
<path d="M139.123 503.973L122.017 531.613L127.866 531.818L144.878 504.179L139.123 503.973Z" fill="#36B37E"/>
<path d="M149.21 504.363L132.104 532.003L137.953 532.209L154.965 504.57L149.21 504.363Z" fill="#36B37E"/>
<path d="M149.209 504.363L143.326 492.876L140.905 496.422L144.878 504.18L149.209 504.363Z" fill="#36B37E"/>
<path d="M154.965 504.569L147.324 489.65L158.967 497.859L162.558 504.871L154.965 504.569Z" fill="#36B37E"/>
<path d="M162.558 504.871L159.879 508.832L166.76 509.122L169.27 505.106L162.558 504.871Z" fill="#172B4D"/>
<path d="M152.566 508.435L150.131 512.413L157.63 512.715L160.159 508.736L152.566 508.435Z" fill="#172B4D"/>
<path d="M157.63 512.715L154.951 516.676L161.832 516.966L164.361 512.987L157.63 512.715Z" fill="#172B4D"/>
<path d="M147.12 487.965L146.437 489.022L151.13 476.307L154.637 476.536L147.12 487.965Z" fill="#172B4D"/>
<path d="M113.567 522.1L116.739 516.803L113.601 510.124L110.521 515.326L113.567 522.1Z" fill="#36B37E"/>
<path d="M114.252 511.485L111.991 506.428L115.071 501.226L117.425 506.282L127.848 489.22C127.848 489.22 121.354 476.539 120.36 474.599C119.367 472.66 104.258 501.349 104.258 501.349L111.115 516.575L114.252 511.485Z" fill="#172B4D"/>
</g>
</g>
<g opacity="0.32">
<g clip-path="url(#clip2_2_372)">
<path d="M162.261 135.484L170.041 145.395L165.169 157.62L157.399 147.659L162.261 135.484Z" fill="#C5E9DA" stroke="#36B37E" stroke-width="0.474153" stroke-miterlimit="10" stroke-linejoin="round"/>
<path d="M157.399 147.658L165.169 157.619L152.477 158.634L144.823 149.31L157.399 147.658Z" fill="white" stroke="#36B37E" stroke-width="0.474153" stroke-miterlimit="10" stroke-linejoin="round"/>
<path d="M157.399 147.659L153.45 141.7L144.823 149.311L157.399 147.659Z" fill="white" stroke="#36B37E" stroke-width="0.474153" stroke-miterlimit="10" stroke-linejoin="round"/>
<path d="M153.45 141.699L162.261 135.483L157.398 147.659L153.45 141.699Z" fill="white" stroke="#36B37E" stroke-width="0.474153" stroke-miterlimit="10" stroke-linejoin="round"/>
<path d="M144.822 149.311L149.973 137.098L153.45 141.7L144.822 149.311Z" fill="#C5E9DA" stroke="#36B37E" stroke-width="0.474153" stroke-miterlimit="10" stroke-linejoin="round"/>
<path d="M162.261 135.483L149.973 137.098L153.45 141.699L162.261 135.483Z" fill="white" stroke="#36B37E" stroke-width="0.474153" stroke-miterlimit="10" stroke-linejoin="round"/>
<path d="M155.423 144.671L156.606 146.474L155.423 144.671Z" fill="#644DF2"/>
<path d="M157.938 146.299L156.606 146.474L157.398 147.659L157.938 146.299Z" fill="#36B37E"/>
<path d="M157.938 146.3L165.769 156.106L166.603 154.006L158.759 144.234L157.938 146.3Z" fill="#36B37E"/>
<path d="M159.388 142.682L167.219 152.488L168.053 150.388L160.21 140.616L159.388 142.682Z" fill="#36B37E"/>
<path d="M159.388 142.682L154.448 143.331L155.423 144.671L158.76 144.233L159.388 142.682Z" fill="#36B37E"/>
<path d="M160.21 140.616L153.793 141.459L158.289 138.29L161.304 137.894L160.21 140.616Z" fill="#36B37E"/>
<path d="M161.305 137.894L162.398 139.382L163.396 136.918L162.261 135.484L161.305 137.894Z" fill="#172B4D"/>
<path d="M161.304 141.99L162.435 143.391L163.518 140.704L162.399 139.268L161.304 141.99Z" fill="#172B4D"/>
<path d="M163.517 140.703L164.61 142.192L165.608 139.727L164.49 138.291L163.517 140.703Z" fill="#172B4D"/>
<path d="M153.154 141.314L153.45 141.7L149.435 138.344L149.973 137.098L153.154 141.314Z" fill="#172B4D"/>
<path d="M161.213 157.943L159.699 156.102L156.863 156.377L158.355 158.172L161.213 157.943Z" fill="#36B37E"/>
<path d="M157.443 156.317L155.311 156.483L153.818 154.688L155.962 154.488L151.111 148.484C151.111 148.484 145.657 149.201 144.823 149.31C143.989 149.42 152.46 158.636 152.46 158.636L158.887 158.118L157.443 156.317Z" fill="#172B4D"/>
</g>
</g>
<g clip-path="url(#clip3_2_372)">
<path d="M13.5298 321.681L76.9036 282.354C76.9036 282.354 26.0763 362.657 25.224 362.31C25.224 362.31 17.3207 332.554 13.5298 321.681Z" fill="white" stroke="#36B37E" stroke-width="0.613298" stroke-miterlimit="10" stroke-linejoin="round"/>
<path d="M76.9041 282.354L78.8146 284.983C78.8146 284.983 80.8743 367.905 80.7446 368.713C80.615 369.521 81.8864 370.302 79.8906 370.815C77.8948 371.328 42.551 365.774 33.8593 364.03C25.2244 362.31 25.2244 362.31 25.2244 362.31L76.9041 282.354Z" fill="#36B37E"/>
<path d="M37.5866 316.89L53.1019 358.543L79.6582 344.176L78.5947 300.517L37.5866 316.89Z" fill="#C5E9DA"/>
<mask id="mask0_2_372" style="mask-type:alpha" maskUnits="userSpaceOnUse" x="37" y="300" width="43" height="59">
<path d="M37.7911 317.19L53.3064 358.843L79.8627 344.476L78.7991 300.817L37.7911 317.19Z" fill="#C5E9DA"/>
</mask>
<g mask="url(#mask0_2_372)">
<path d="M75.8539 342.494L68.7549 341.067L68.5916 350.268L60.9564 349.02L60.4698 359.017L68.3909 360.05L75.9249 361.059L83.0718 362.042L82.7806 352.656L75.8397 351.492L75.8539 342.494Z" fill="#36B37E"/>
<path d="M61.3261 339.637L68.7553 341.066L68.9044 332.389L61.7611 330.745L61.3261 339.637Z" fill="#36B37E"/>
<path d="M53.556 338.07L52.9008 347.667L60.9568 349.02L61.3261 339.637L53.556 338.07Z" fill="#36B37E"/>
<path d="M53.5557 338.07L54.1737 329.054L46.2224 327.28L45.3417 336.454L53.5557 338.07Z" fill="#36B37E"/>
<path d="M45.342 336.454L36.7639 334.757L35.4802 344.761L34.1129 355.459L43.3994 356.716L52.1852 357.902L52.9008 347.667L44.4009 346.266L45.342 336.454Z" fill="#36B37E"/>
<path d="M95.2406 346.267L94.6688 338.223L88.6743 336.847L82.3726 335.413L82.1649 327.451L75.7957 325.856L69.1194 324.203L68.9045 332.39L75.8206 333.942L75.8543 342.496L82.6123 343.785L82.781 352.657L89.4147 353.764L89.0401 345.072L95.2406 346.267Z" fill="#36B37E"/>
<path d="M87.9819 321.604L81.9661 319.955L82.1649 327.449L88.3406 329.032L87.9819 321.604Z" fill="#36B37E"/>
<path d="M62.1019 322.41L69.1191 324.202L69.2523 316.379L62.4748 314.486L55.3332 312.511L54.7774 320.56L54.1737 329.053L61.761 330.745L62.1019 322.41Z" fill="#36B37E"/>
<path d="M47.0891 318.629L39.0597 316.559L37.9304 325.368L46.2226 327.28L47.0891 318.629Z" fill="#36B37E"/>
<path d="M29.1377 323.383L27.6284 332.965L36.7639 334.756L37.9305 325.367L29.1377 323.383Z" fill="#36B37E"/>
</g>
<path d="M37.5865 316.89L60.5045 307.732L43.9858 334.054L37.5865 316.89Z" fill="#172B4D"/>
<path d="M25.0716 314.454L20.1087 343.617" stroke="#36B37E" stroke-width="0.613298" stroke-miterlimit="10" stroke-linejoin="round"/>
<path d="M24.037 320.588L22.0554 316.34L25.0722 314.455L24.037 320.588Z" fill="#172B4D"/>
<path d="M64.86 289.84L70.9895 291.536" stroke="#36B37E" stroke-width="0.613298" stroke-miterlimit="10" stroke-linejoin="round"/>
<path d="M41.9697 329.726L57.082 367.971" stroke="white" stroke-width="0.613298" stroke-miterlimit="10" stroke-linejoin="round"/>
</g>
<g clip-path="url(#clip4_2_372)">
<path d="M514.404 90.1841L468.006 84.0288L448.633 65.2344L451.204 17.7654L457.506 8.68447L471.563 10.6502L516.895 59.497L514.404 90.1841Z" fill="#C5E9DA" stroke="#36B37E" stroke-width="0.646395" stroke-miterlimit="10" stroke-linejoin="round"/>
<path d="M483.709 86.1139L482.637 72.4664C482.637 72.4664 477.95 85.343 476 85.0915C473.997 84.803 483.709 86.1139 483.709 86.1139Z" fill="#36B37E"/>
<path d="M494.799 87.5929L505.432 47.2137" stroke="#36B37E" stroke-width="0.646395" stroke-miterlimit="10"/>
<path d="M502.752 57.3134L501.954 43.3841" stroke="#36B37E" stroke-width="0.646395" stroke-miterlimit="10"/>
<path d="M450.984 27.7485L469.948 40.0653L474.642 45.5619L469.719 49.2453L450.649 33.6908L450.984 27.7485Z" fill="white" stroke="#36B37E" stroke-width="0.646395"/>
<path d="M482.449 79.031L482.591 57.9649" stroke="#36B37E" stroke-width="0.646395" stroke-miterlimit="10"/>
<path d="M450.451 31.49L450.635 31.2245L456.282 34.1988L465.568 42.9251L470.163 39.8191L471.585 10.6721L457.528 8.70634L451.226 17.7873L450.451 31.49Z" fill="#172B4D"/>
<path d="M455.95 34.6761L450.463 31.8124L448.655 65.2557L468.029 84.0501L469.711 49.6541L467.274 45.6818L455.95 34.6761Z" fill="#172B4D"/>
</g>
<g opacity="0.48" clip-path="url(#clip5_2_372)">
<path d="M271.187 479.974L285.006 488.404C285.006 488.404 287.052 490.016 285.128 493.487C283.204 496.959 280.873 496.117 280.873 496.117L266.521 487.857C266.521 487.857 264.821 486.291 266.526 483.079C268.499 479.343 271.187 479.974 271.187 479.974Z" fill="#C5E9DA" stroke="#36B37E" stroke-width="0.121852" stroke-miterlimit="10"/>
<path d="M271.187 479.975C271.187 479.975 273.145 481.176 271.056 485.129C269.092 488.831 266.521 487.857 266.521 487.857C266.521 487.857 264.869 486.153 266.526 483.079C268.183 480.006 270.171 479.951 271.187 479.975Z" fill="#36B37E"/>
<path d="M283.909 487.73C283.909 487.73 282.631 489.675 279.267 491.019C275.699 492.448 273.667 491.97 273.667 491.97L276.549 493.634C276.549 493.634 278.062 493.954 281.792 492.213C284.837 490.795 285.706 489.395 285.706 489.395L284.989 488.399L283.909 487.73Z" fill="#172B4D"/>
<path d="M279.01 484.785C279.01 484.785 277.773 486.527 274.113 487.714C270.453 488.901 267.941 488.688 267.941 488.688L270.824 490.353C270.824 490.353 273.159 490.649 276.457 489.286C279.514 488.015 281.259 486.16 281.259 486.16L279.491 485.076L279.01 484.785Z" fill="#36B37E"/>
<path d="M271.056 485.129C271.056 485.129 274.891 485.418 277.145 483.602L274.672 482.1C274.672 482.1 273.545 482.529 272.002 482.281C272.002 482.281 271.595 484.065 271.056 485.129Z" fill="#172B4D"/>
<path d="M269.591 483.613L269.104 484.244L269.267 487.134C269.267 487.134 270.386 486.362 271.055 485.129L270.462 483.703L269.591 483.613Z" fill="white" stroke="#36B37E" stroke-width="0.121852" stroke-miterlimit="10"/>
<path d="M271.785 480.856C271.785 480.856 271.62 480.154 271.181 479.965L268.86 483.322C268.86 483.322 269.667 483.6 269.868 483.712C270.075 483.834 270.455 484.042 270.455 484.042L271.878 483.116C271.884 483.127 272.372 481.994 271.785 480.856Z" fill="white" stroke="#36B37E" stroke-width="0.121852" stroke-miterlimit="10"/>
<path d="M285.514 492.675C285.514 492.675 283.442 494.141 280.914 494.605C278.565 495.04 278.348 494.673 278.348 494.673L280.873 496.117C280.873 496.117 281.951 496.482 283.302 495.652C284.654 494.822 285.514 492.675 285.514 492.675Z" fill="#36B37E"/>
<path d="M269.874 483.721C269.874 483.721 269.693 482.638 269.476 482.27C269.259 481.903 269.211 481.79 269.211 481.79L268.697 482.7L268.865 483.332L269.874 483.721Z" fill="white" stroke="#36B37E" stroke-width="0.121852" stroke-miterlimit="10"/>
<path d="M269.094 484.25L268.378 484.088L265.812 486.147C265.812 486.147 265.747 486.406 266.115 487.274L266.343 487.636L269.381 484.745C269.371 484.751 269.457 484.328 269.094 484.25Z" fill="white" stroke="#36B37E" stroke-width="0.121852" stroke-miterlimit="10"/>
<path d="M269.094 484.25C269.094 484.25 268.143 485.931 268.18 485.897C268.217 485.863 269.641 484.964 269.641 484.964C269.641 484.964 269.59 484.241 269.094 484.25Z" fill="white" stroke="#36B37E" stroke-width="0.121852" stroke-miterlimit="10"/>
</g>
<g clip-path="url(#clip6_2_372)">
<path d="M460.897 631.679L480.277 598.525C480.277 598.525 484.009 593.6 492.33 598.009C500.65 602.418 498.757 607.985 498.757 607.985L479.802 642.394C479.802 642.394 476.163 646.498 468.469 642.596C459.52 638.082 460.897 631.679 460.897 631.679Z" fill="#C5E9DA" stroke="#36B37E" stroke-width="0.289082" stroke-miterlimit="10"/>
<path d="M460.898 631.679C460.898 631.679 463.659 626.98 473.129 631.761C481.998 636.253 479.802 642.395 479.802 642.395C479.802 642.395 475.833 646.389 468.469 642.596C461.105 638.803 460.887 634.088 460.898 631.679Z" fill="#36B37E"/>
<path d="M478.726 601.157C478.726 601.157 483.397 604.101 486.734 612.022C490.282 620.421 489.239 625.263 489.239 625.263L493.059 618.351C493.059 618.351 493.749 614.748 489.454 605.978C485.955 598.819 482.597 596.819 482.597 596.819L480.267 598.565L478.726 601.157Z" fill="#172B4D"/>
<path d="M471.958 612.909C471.958 612.909 476.145 615.766 479.123 624.394C482.102 633.022 481.709 638.991 481.709 638.991L485.529 632.078C485.529 632.078 486.128 626.525 482.748 618.763C479.597 611.57 475.118 607.513 475.118 607.513L472.627 611.755L471.958 612.909Z" fill="#36B37E"/>
<path d="M473.129 631.761C473.129 631.761 473.644 622.651 469.235 617.385L465.783 623.317C465.783 623.317 466.849 625.973 466.331 629.643C466.331 629.643 470.581 630.528 473.129 631.761Z" fill="#172B4D"/>
<path d="M469.598 635.301L471.116 636.428L477.963 635.913C477.963 635.913 476.083 633.293 473.128 631.761L469.772 633.232L469.598 635.301Z" fill="white" stroke="#36B37E" stroke-width="0.289082" stroke-miterlimit="10"/>
<path d="M462.96 630.221C462.96 630.221 461.302 630.644 460.873 631.693L468.939 637.05C468.939 637.05 469.562 635.122 469.818 634.64C470.099 634.144 470.575 633.235 470.575 633.235L468.316 629.9C468.341 629.885 465.632 628.778 462.96 630.221Z" fill="white" stroke="#36B37E" stroke-width="0.289082" stroke-miterlimit="10"/>
<path d="M490.387 597.129C490.387 597.129 493.954 601.979 495.168 607.954C496.304 613.507 495.442 614.038 495.442 614.038L498.757 607.985C498.757 607.985 499.574 605.411 497.545 602.243C495.516 599.075 490.387 597.129 490.387 597.129Z" fill="#36B37E"/>
<path d="M469.843 634.626C469.843 634.626 467.281 635.104 466.419 635.635C465.557 636.165 465.293 636.285 465.293 636.285L467.474 637.462L468.964 637.036L469.843 634.626Z" fill="white" stroke="#36B37E" stroke-width="0.289082" stroke-miterlimit="10"/>
<path d="M471.13 636.452L470.78 638.157L475.776 644.152C475.776 644.152 476.393 644.296 478.437 643.383L479.284 642.827L472.293 635.748C472.307 635.773 471.299 635.587 471.13 636.452Z" fill="white" stroke="#36B37E" stroke-width="0.289082" stroke-miterlimit="10"/>
<path d="M471.131 636.453C471.131 636.453 475.16 638.633 475.077 638.547C474.994 638.461 472.799 635.122 472.799 635.122C472.799 635.122 471.086 635.277 471.131 636.453Z" fill="white" stroke="#36B37E" stroke-width="0.289082" stroke-miterlimit="10"/>
</g>
<defs>
<clipPath id="clip0_2_372">
<rect width="128.874" height="147.139" fill="white" transform="translate(467.936 238.255) rotate(-15.2643)"/>
</clipPath>
<clipPath id="clip1_2_372">
<rect width="58.2472" height="66.5024" fill="white" transform="translate(177.135 520.003) rotate(152.88)"/>
</clipPath>
<clipPath id="clip2_2_372">
<rect width="22.4882" height="25.6754" fill="white" transform="translate(168.698 134.557) rotate(82.5164)"/>
</clipPath>
<clipPath id="clip3_2_372">
<rect width="92.4853" height="94.1412" fill="white" transform="translate(36.0518 265.426) rotate(22.1095)"/>
</clipPath>
<clipPath id="clip4_2_372">
<rect width="93.8566" height="62.9589" fill="white" transform="translate(502.31 108.234) rotate(-145.241)"/>
</clipPath>
<clipPath id="clip5_2_372">
<rect width="20.4102" height="16.2672" fill="white" transform="translate(278.014 475.325) rotate(61.0741)"/>
</clipPath>
<clipPath id="clip6_2_372">
<rect width="48.4212" height="38.5925" fill="white" transform="translate(449.564 615.69) rotate(-30)"/>
</clipPath>
</defs>
</svg>
