<svg width="484" height="390" viewBox="0 0 484 390" fill="none" xmlns="http://www.w3.org/2000/svg">
<g clip-path="url(#clip0_2_550)">
<path d="M435.263 92.9786L479.268 107.944H416.13L408.036 107.06L404.111 104.607L417.504 92.9786H435.263Z" fill="#172B4D"/>
<path d="M429.474 65.5021V63.1469C429.474 63.1469 424.323 52.9414 423.587 52.8432C422.851 52.7451 363 27.82 363 27.82L385.812 72.224L394.839 81.8408L429.474 65.5021Z" fill="white" stroke="#36B37E" stroke-width="0.598795" stroke-miterlimit="10"/>
<mask id="mask0_2_550" style="mask-type:alpha" maskUnits="userSpaceOnUse" x="362" y="27" width="68" height="56">
<path d="M429.657 65.7686V63.4135C429.657 63.4135 424.506 53.2079 423.77 53.1098C423.034 53.0117 363.183 28.0866 363.183 28.0866L385.995 72.4906L395.022 82.1073L429.657 65.7686Z" fill="white" stroke="#36B37E" stroke-width="0.598795" stroke-miterlimit="10"/>
</mask>
<g mask="url(#mask0_2_550)">
<path d="M404.503 53.9724L396.997 54.2177L393.563 48.1336L386.352 48.4771L389.737 54.4139L382.574 54.6593L385.91 60.6943L393.122 60.5471L400.579 60.3508L404.209 66.6312L411.911 66.5821L415.738 73.0587H423.832L419.858 66.484L415.983 60.0074L408.183 60.2036L404.503 53.9724Z" fill="#C5E9DA"/>
<path d="M400.922 47.8389L397.39 41.853L390.129 42.2455L393.563 48.1333L400.922 47.8389Z" fill="#36B37E"/>
<path d="M412.206 53.678L408.477 47.4958L400.922 47.8393L404.503 53.9724L412.206 53.678Z" fill="#36B37E"/>
<path d="M416.228 47.152L412.451 41.0188L404.846 41.4113L408.477 47.4954L416.228 47.152Z" fill="#36B37E"/>
<path d="M420.104 53.4323L412.205 53.6776L415.983 60.007L424.028 59.8598L432.27 59.6636L428.198 53.187L424.225 46.8085L416.228 47.152L420.104 53.4323Z" fill="#36B37E"/>
<path d="M379.336 48.7714L386.352 48.477L383.065 42.5892L390.129 42.2458L386.793 36.407L379.827 36.8486L373.008 37.2902L376.147 42.9817L369.377 43.3252L362.804 43.6687L365.796 49.3602L372.468 49.0658L375.608 54.9046L382.574 54.6593L379.336 48.7714Z" fill="#172B4D"/>
<path d="M368.838 55.1006L371.928 60.9884L378.846 60.8412L375.608 54.9043L368.838 55.1006Z" fill="#36B37E"/>
<path d="M363.392 32.1872L366.336 37.7316L373.008 37.29L369.917 31.6966L363.392 32.1872Z" fill="#36B37E"/>
<path d="M397.39 41.8531L404.847 41.4115L401.265 35.4746L397.782 29.6359L390.571 30.1756L383.506 30.7153L386.793 36.4069L393.956 35.9653L397.39 41.8531Z" fill="#36B37E"/>
<path d="M416.474 34.4932L408.771 34.9838L412.451 41.0189L420.3 40.6263L416.474 34.4932Z" fill="#36B37E"/>
<path d="M432.368 46.4654L428.346 40.1851L420.3 40.6267L424.225 46.8089L432.368 46.4654Z" fill="#36B37E"/>
<path d="M378.846 60.8411L382.133 66.9252L389.295 66.8271L385.91 60.6939L378.846 60.8411Z" fill="#36B37E"/>
</g>
<path d="M416.13 63.9317L388.658 69.8196L387.971 71.635L394.103 80.0251L416.13 63.9317Z" fill="#172B4D"/>
<path d="M431.829 65.7964L458.811 0L441.444 70.801L439.58 71.4389L431.829 65.7964Z" fill="white" stroke="#36B37E" stroke-width="0.598795" stroke-miterlimit="10"/>
<path d="M441.592 70.1633L433.546 61.5769L431.829 65.7965L439.58 71.439L441.444 70.8012L441.592 70.1633Z" fill="#36B37E"/>
<path d="M439.58 71.4391L434.036 66.7288L425.451 60.2032L403.718 68.9367L402.737 74.1867L408.036 81.6937L439.58 71.4391Z" fill="white" stroke="#36B37E" stroke-width="0.598795" stroke-miterlimit="10"/>
<path d="M428.444 75.0205L444.486 69.8196L435.263 92.9783L422.017 93.8124L428.444 75.0205Z" fill="white" stroke="#36B37E" stroke-width="0.598795" stroke-miterlimit="10"/>
<path d="M411.224 80.5649L408.036 81.6934L406.564 102.644L408.036 107.06L422.017 93.8125L428.444 75.0205L411.224 80.5649Z" fill="white" stroke="#36B37E" stroke-width="0.598795" stroke-miterlimit="10"/>
<path d="M454.15 66.7288L481.868 81.6937L411.224 80.5652L454.15 66.7288Z" fill="#C5E9DA" stroke="#36B37E" stroke-width="0.598795" stroke-miterlimit="10"/>
<path d="M408.036 81.6937V78.2591L385.812 47.6915L382.869 52.3527L404.111 104.607L406.564 102.644L408.036 81.6937Z" fill="white" stroke="#36B37E" stroke-width="0.598795" stroke-miterlimit="10"/>
<path d="M385.812 47.6912L382.869 52.3524L372.959 61.5766L380.808 45.7286L385.812 47.6912Z" fill="white" stroke="#36B37E" stroke-width="0.598795" stroke-miterlimit="10"/>
<path d="M438.795 84.0488L411.224 80.5652L440.022 81.0558L438.795 84.0488Z" fill="#172B4D"/>
<path d="M414.217 79.6328L404.601 71.6352L404.209 73.009L408.036 78.259V81.6936L414.217 79.6328Z" fill="#172B4D"/>
<path d="M402.051 99.6022L399.794 102.399L396.85 99.6022L381.495 53.6772L382.869 52.3524L402.051 99.6022Z" fill="#C5E9DA" stroke="#36B37E" stroke-width="0.598795" stroke-miterlimit="10"/>
</g>
<g clip-path="url(#clip1_2_550)">
<path d="M21.7954 382.248L122.533 380.945L83.4966 370.206L87.8965 360.899L112.864 357.472L106.468 355.989L89.2779 355.222L21.7954 382.248Z" fill="#172B4D"/>
<path d="M77.5105 334.716L74.4407 334.767L48.9108 325.255L77.7663 341.619L82.4732 337.733L77.5105 334.716Z" fill="#36B37E"/>
<path d="M77.5107 334.715L127.189 325.612L102.376 349.699L77.5107 334.715Z" fill="#172B4D"/>
<path d="M48.9108 325.255L98.4869 353.432L87.3336 355.478L60.013 357.472L48.9108 325.255Z" fill="white" stroke="#36B37E" stroke-width="0.633632" stroke-miterlimit="10" stroke-linejoin="round"/>
<path d="M98.4871 353.432L127.189 325.612L106.468 355.989L98.4871 353.432Z" fill="white" stroke="#36B37E" stroke-width="0.633632" stroke-miterlimit="10" stroke-linejoin="round"/>
<path d="M77.7666 341.619L90.6083 331.033L91.9385 332.107L87.8967 347.398L77.7666 341.619Z" fill="white" stroke="#36B37E" stroke-width="0.633632" stroke-miterlimit="10" stroke-linejoin="round"/>
<path d="M91.9383 332.107L103.552 348.574L98.4871 353.432L87.8965 347.397L91.9383 332.107Z" fill="white" stroke="#36B37E" stroke-width="0.633632" stroke-miterlimit="10" stroke-linejoin="round"/>
<path d="M106.469 355.989L87.3339 355.477L98.4872 353.432L106.469 355.989Z" fill="white" stroke="#36B37E" stroke-width="0.633632" stroke-miterlimit="10" stroke-linejoin="round"/>
<path d="M40.3668 348.114L36.2738 348.83L0.255699 341.568L42.2087 357.216L47.683 351.029L40.3668 348.114Z" fill="white" stroke="#36B37E" stroke-width="0.633632" stroke-miterlimit="10" stroke-linejoin="round"/>
<path d="M40.3669 348.114L104.627 325.613L76.6408 362.688L40.3669 348.114Z" fill="#C5E9DA" stroke="#36B37E" stroke-width="0.633632" stroke-miterlimit="10"/>
<path d="M0.255699 341.568L72.3431 368.416L57.8643 373.53L21.8461 381.865L0.255699 341.568Z" fill="white" stroke="#36B37E" stroke-width="0.633632" stroke-miterlimit="10" stroke-linejoin="round"/>
<path d="M72.3431 368.416L104.626 325.613L83.4964 370.206L72.3431 368.416Z" fill="white" stroke="#36B37E" stroke-width="0.633632" stroke-miterlimit="10" stroke-linejoin="round"/>
<path d="M42.2086 357.217L57.0967 340.494L59.0921 341.568L56.9433 362.689L42.2086 357.217Z" fill="#36B37E"/>
<path d="M59.0921 341.568L77.9709 360.95L72.343 368.416L56.9433 362.688L59.0921 341.568Z" fill="white" stroke="#36B37E" stroke-width="0.633632" stroke-miterlimit="10" stroke-linejoin="round"/>
<path d="M83.4964 370.206L57.8642 373.53L72.3431 368.416L83.4964 370.206Z" fill="white" stroke="#36B37E" stroke-width="0.633632" stroke-miterlimit="10" stroke-linejoin="round"/>
<mask id="mask1_2_550" style="mask-type:alpha" maskUnits="userSpaceOnUse" x="-1" y="341" width="74" height="41">
<path d="M0.166443 341.759L72.2077 368.309L57.9414 373.223L21.9232 381.558L0.166443 341.759Z" fill="white" stroke="#36B37E" stroke-width="0.633632" stroke-miterlimit="10" stroke-linejoin="round"/>
</mask>
<g mask="url(#mask1_2_550)">
<path d="M43.5389 369.49L35.7111 369.746L32.0786 363.456L24.5577 363.762L28.0879 370.001L20.6694 370.206L24.0973 376.496L31.6693 376.343L39.3948 376.138L43.1808 382.735L51.2644 382.633L55.255 389.383H63.6456L59.5526 382.53L55.5108 375.831L47.3249 375.985L43.5389 369.49Z" fill="#C5E9DA"/>
<path d="M39.753 363.098L36.0693 356.859L28.4974 357.268L32.0787 363.456L39.753 363.098Z" fill="#C5E9DA"/>
<path d="M51.5203 369.234L47.6832 362.74L39.753 363.098L43.539 369.49L51.5203 369.234Z" fill="#36B37E"/>
<path d="M55.7667 362.433L51.8272 355.989L43.8459 356.45L47.6831 362.74L55.7667 362.433Z" fill="#172B4D"/>
<path d="M59.7574 368.927L51.5203 369.234L55.511 375.831L63.8504 375.627L72.4457 375.422L68.1992 368.672L64.0551 362.075L55.7668 362.433L59.7574 368.927Z" fill="#36B37E"/>
<path d="M17.2416 364.069L24.5578 363.763L21.1299 357.677L28.4972 357.268L25.0182 351.182L17.7532 351.643L10.6417 352.103L13.916 358.035L6.90683 358.444L-6.10352e-05 358.802L3.12083 364.683L10.13 364.376L13.4044 370.462L20.6694 370.206L17.2416 364.069Z" fill="#36B37E"/>
<path d="M6.29282 370.717L9.56719 376.803L16.7299 376.65L13.4044 370.462L6.29282 370.717Z" fill="#36B37E"/>
<path d="M0.613831 346.835L3.73472 352.563L10.6416 352.103L7.46956 346.324L0.613831 346.835Z" fill="#36B37E"/>
<path d="M36.0693 356.859L43.8459 356.45L40.1111 350.262L36.4786 344.176L28.9577 344.739L21.5904 345.25L25.0182 351.182L32.4879 350.722L36.0693 356.859Z" fill="#36B37E"/>
<path d="M56.0225 349.239L47.9901 349.75L51.8272 355.989L60.0132 355.58L56.0225 349.239Z" fill="#36B37E"/>
<path d="M72.5991 361.666L68.3526 355.12L60.0132 355.58L64.055 362.075L72.5991 361.666Z" fill="#36B37E"/>
<path d="M16.73 376.649L20.1579 382.991L27.6276 382.888L24.0974 376.496L16.73 376.649Z" fill="#36B37E"/>
</g>
</g>
<defs>
<clipPath id="clip0_2_550">
<rect width="120.389" height="108.042" fill="white" transform="matrix(-1 0 0 1 483.389 0)"/>
</clipPath>
<clipPath id="clip1_2_550">
<rect width="127.445" height="64.3839" fill="white" transform="translate(0 325)"/>
</clipPath>
</defs>
</svg>
