<svg width="113" height="146" viewBox="0 0 113 146" fill="none" xmlns="http://www.w3.org/2000/svg">
<path d="M77.3816 2.62873L93.2512 12.1845L49.1578 136.671L29.4374 143.746L20.6257 133.728L18.1813 125.645L47.12 54.5894L54.1464 48.0769L51.3122 41.3347L64.3325 8.09206L77.3816 2.62873Z" fill="white"/>
<mask id="mask0_2_620" style="mask-type:alpha" maskUnits="userSpaceOnUse" x="18" y="2" width="76" height="142">
<path d="M77.3816 2.62873L93.2512 12.1845L49.1578 136.671L29.4374 143.746L20.6257 133.728L18.1813 125.645L47.12 54.5894L54.1464 48.0769L51.3122 41.3347L64.3325 8.09206L77.3816 2.62873Z" fill="white"/>
</mask>
<g mask="url(#mask0_2_620)">
<path d="M44.8428 67.1992L47.0414 60.7908L53.2172 59.8644L55.3163 53.6739L49.2061 54.5898L51.3263 48.5304L45.2055 49.3807L42.9647 55.5268L40.6793 61.8145L34.2411 62.7832L31.7907 69.2993L25.1113 70.4414L22.5063 77.2515L29.3064 76.0228L35.9858 74.8808L38.3496 68.244L44.8428 67.1992Z" fill="#C5E9DA"/>
<path d="M51.1287 66.1213L57.2939 65.1293L59.3169 58.8838L53.2172 59.8652L51.1287 66.1213Z" fill="#36B37E"/>
<path d="M42.5233 73.6953L48.9404 72.5955L51.1285 66.1216L44.8426 67.2003L42.5233 73.6953Z" fill="#36B37E"/>
<path d="M46.708 79.2108L53.1145 78.0454L55.2264 71.5164L48.9405 72.5951L46.708 79.2108Z" fill="#172B4D"/>
<path d="M40.1809 80.463L42.5235 73.6951L35.9858 74.8816L33.512 81.6706L31.0042 88.6669L37.7832 87.307L44.4416 86.0339L46.708 79.2109L40.1809 80.463Z" fill="#172B4D"/>
<path d="M57.3157 47.7017L55.3162 53.6744L61.2952 52.7796L59.3168 58.8835L65.2959 57.9887L67.2193 51.961L69.0326 46.0855L63.2398 46.8831L65.1293 41.0626L66.9848 35.4495L61.2365 36.1053L59.3259 41.7946L53.4018 42.6132L51.3261 48.5309L57.3157 47.7017Z" fill="#36B37E"/>
<path d="M55.3569 36.7819L49.4223 37.5349L47.3361 43.387L53.4018 42.6129L55.3569 36.7819Z" fill="#172B4D"/>
<path d="M76.4082 39.6519L70.8015 40.3522L69.0327 46.086L74.6943 45.3095L76.4082 39.6519Z" fill="#36B37E"/>
<path d="M57.2938 65.1292L55.2264 71.5165L61.3811 70.4589L67.3941 69.3569L69.2859 63.1324L71.1332 57.0497L65.2958 57.9889L63.3935 64.1478L57.2938 65.1292Z" fill="#36B37E"/>
<path d="M57.2991 83.5612L59.3899 76.9011L53.1145 78.0453L50.9031 84.7921L57.2991 83.5612Z" fill="#36B37E"/>
<path d="M42.065 93.0091L48.6472 91.6809L50.9031 84.7924L44.4415 86.0339L42.065 93.0091Z" fill="#36B37E"/>
<path d="M47.3362 43.3876L41.2048 44.1724L38.9429 50.1873L45.2054 49.3814L47.3362 43.3876Z" fill="#36B37E"/>
</g>
<path d="M77.3816 2.62873L29.4374 143.746L49.1577 136.671L93.2512 12.1845L77.3816 2.62873Z" fill="#C5E9DA"/>
<path d="M80.8313 20.3048L89.7881 22.0255L87.6468 27.9537L80.8313 20.3048Z" fill="#172B4D"/>
<path d="M77.3816 2.62873L93.2512 12.1845L49.1578 136.671L29.4374 143.746L20.6257 133.728L18.1813 125.645L47.12 54.5894L54.1464 48.0769L51.3122 41.3347L64.3325 8.09206L77.3816 2.62873Z" stroke="#36B37E" stroke-width="1.57158" stroke-miterlimit="10" stroke-linejoin="round"/>
<path d="M60.2905 52.8071L66.4344 57.5368L58.2359 58.8559L60.2905 52.8071Z" fill="white"/>
<path d="M77.2473 57.4109L66.4344 57.5362L60.2905 52.8065L54.1466 48.0768" stroke="#36B37E" stroke-width="1.57158" stroke-miterlimit="10" stroke-linejoin="round"/>
<path d="M66.4344 57.5357L58.2359 58.8549L49.9835 83.2575" stroke="#36B37E" stroke-width="1.57158" stroke-miterlimit="10" stroke-linejoin="round"/>
<path d="M87.6469 27.9533L74.0053 12.5899L61.1854 16.1327" stroke="#36B37E" stroke-width="1.57158" stroke-miterlimit="10" stroke-linejoin="round"/>
<path d="M64.9813 15.0512L62.2825 13.3327" stroke="#36B37E" stroke-width="1.57158" stroke-miterlimit="10" stroke-linejoin="round"/>
<path d="M47.9288 89.3067L37.2853 78.7755L18.1813 125.644L20.6257 133.728L29.4374 143.746L47.9288 89.3067Z" fill="white" stroke="#36B37E" stroke-width="1.57158" stroke-miterlimit="10" stroke-linejoin="round"/>
<path d="M64.0917 95.2503L46.696 92.9365L45.3001 86.7702L48.5681 88.2625L64.0917 95.2503Z" fill="#172B4D"/>
<path d="M29.4373 143.747L82.7605 135.167L112.275 130.418L95.772 113.161L18.1812 125.645L20.6257 133.728L29.4373 143.747Z" fill="#172B4D"/>
</svg>
